<svg xmlns:rdf="http://www.w3.org/1999/02/22-rdf-syntax-ns#" xmlns="http://www.w3.org/2000/svg" xmlns:cc="http://web.resource.org/cc/" xmlns:dc="http://purl.org/dc/elements/1.1/" xmlns:svg="http://www.w3.org/2000/svg" version="1.0" width="131.33" height="251.65"><rect id="backgroundrect" width="100%" height="100%" x="0" y="0" fill="none" stroke="none"/>
  
  <metadata>
    <rdf:RDF>
      <cc:Work>
        <dc:format>image/svg+xml</dc:format>
        <dc:type rdf:resource="http://purl.org/dc/dcmitype/StillImage"/>
        <cc:license rdf:resource="http://creativecommons.org/licenses/publicdomain/"/>
        <dc:publisher>
          <cc:Agent rdf:about="http://openclipart.org/">
            <dc:title>Openclipart</dc:title>
          </cc:Agent>
        </dc:publisher>
        <dc:title>Tree silhouettes</dc:title>
        <dc:date>2007-11-20T10:29:44</dc:date>
        <dc:description>Some shapes from photos.</dc:description>
        <dc:source>http://openclipart.org/detail/8767/tree-silhouettes-by-chrisdesign-8767</dc:source>
        <dc:creator>
          <cc:Agent>
            <dc:title>Chrisdesign</dc:title>
          </cc:Agent>
        </dc:creator>
        <dc:subject>
          <rdf:Bag>
            <rdf:li>clip art</rdf:li>
            <rdf:li>clipart</rdf:li>
            <rdf:li>image</rdf:li>
            <rdf:li>media</rdf:li>
            <rdf:li>nature</rdf:li>
            <rdf:li>png</rdf:li>
            <rdf:li>public domain</rdf:li>
            <rdf:li>shape</rdf:li>
            <rdf:li>silhouette</rdf:li>
            <rdf:li>svg</rdf:li>
            <rdf:li>tree</rdf:li>
          </rdf:Bag>
        </dc:subject>
      </cc:Work>
      <cc:License rdf:about="http://creativecommons.org/licenses/publicdomain/">
        <cc:permits rdf:resource="http://creativecommons.org/ns#Reproduction"/>
        <cc:permits rdf:resource="http://creativecommons.org/ns#Distribution"/>
        <cc:permits rdf:resource="http://creativecommons.org/ns#DerivativeWorks"/>
      </cc:License>
    </rdf:RDF>
  </metadata>
<g class="currentLayer" style=""><title>Layer 1</title><g id="layer1" class="selected" fill="#00b800" fill-opacity="1">
    <path id="path3444" d="m63.5999755859375,244.6199914550781 c0.2,-3.8600000000000003 0.1,-9.95 -0.30000000000000004,-13.54 c-0.6000000000000001,-6.13 -0.8,-6.47 -2.8,-5.76 c-1.2,0.42000000000000004 -3.5,0.7300000000000001 -5,0.6800000000000002 c-1.5,-0.04000000000000001 -2.7,0.23 -2.7,0.5900000000000001 c0,0.37000000000000005 -1.3,0.5800000000000001 -3,0.46 c-2.1,-0.15000000000000002 -3.1,0.32000000000000006 -3.5,1.7000000000000002 c-0.7000000000000001,2.19 -3.5,2.58 -3.5,0.48000000000000004 c0,-1.47 -1.6,-1.58 -3.8,-0.26 c-0.8,0.53 -1,0.30000000000000004 -0.6000000000000001,-0.7000000000000001 c0.4,-1.11 0,-1.37 -1.8,-1.04 c-1.3,0.24000000000000002 -1.8,0.17 -1.1,-0.16000000000000003 c1.8,-0.8200000000000001 1.6,-2.49 -0.1,-1.83 c-0.8,0.30000000000000004 -2.1,-0.49000000000000005 -3,-1.75 l-1.6,-2.29 v2.22 c0,1.22 -0.5,2.22 -1,2.22 c-0.6000000000000001,0 -1,-0.38000000000000006 -1,-0.8600000000000001 c0,-0.47000000000000003 -1.1,-0.6400000000000001 -2.5,-0.38000000000000006 c-1.5,0.28 -2.5,0.010000000000000002 -2.5,-0.6400000000000001 c0,-0.6100000000000001 0.8,-1.12 1.9,-1.12 c1,0 2.4,-0.6400000000000001 3,-1.4300000000000002 c0.7000000000000001,-0.79 2.5,-1.73 4.1,-2.08 c4.7,-1.03 4.3,-2.12 -0.9,-2.15 c-2.6,-0.020000000000000004 -6,-0.33000000000000007 -7.5,-0.7100000000000001 s-3.6,-0.16000000000000003 -4.8,0.49000000000000005 c-1.7000000000000002,0.8800000000000001 -2.3,0.8800000000000001 -2.6,0.020000000000000004 c-0.2,-0.6300000000000001 -0.8,-0.9 -1.3,-0.5900000000000001 c-1.3,0.81 -8,-0.6200000000000001 -7.4,-1.59 c0.30000000000000004,-0.45 2,-0.5900000000000001 3.8,-0.30000000000000004 c2.8,0.46 3.3,0.19000000000000003 4.3,-2.37 c0.9,-2.54 0.8,-2.9 -0.9,-3.03 c-1.4,-0.11000000000000001 -1.6,0.16000000000000003 -0.8,1.18 c0.9,1.01 0.7000000000000001,1.49 -0.6000000000000001,2 c-1,0.37000000000000005 -1.9,0.2 -2.1,-0.38000000000000006 s-0.9,-1.06 -1.6,-1.06 c-0.6000000000000001,0 -1.6,-1.01 -2.1,-2.25 c-0.6000000000000001,-1.4100000000000001 -1.9,-2.29 -3.5,-2.36 c-5.4,-0.23 -5.5,-0.3400000000000001 -3.2,-1.98 c2,-1.4100000000000001 2.1,-1.7400000000000002 0.8,-2.75 c-0.9,-0.6400000000000001 -1.9,-2.62 -2.2,-4.41 c-0.8,-4.03 1.2,-4.39 4.5,-0.8300000000000001 c3.3,3.5300000000000002 7.4,5.02 10,3.63 c2.2,-1.1600000000000001 2.8,-3.05 1.1,-3.05 c-0.6000000000000001,0 -0.9,-0.56 -0.8,-1.25 c0.2,-0.6800000000000002 -0.30000000000000004,-1.13 -1,-1 c-0.7000000000000001,0.14 -1.2,-0.15000000000000002 -1.2,-0.6500000000000001 s-0.9,-0.6700000000000002 -2.1,-0.38000000000000006 c-1.1,0.30000000000000004 -1.9,0.14 -1.7000000000000002,-0.3400000000000001 c0.1,-0.48000000000000004 -0.4,-1.9 -1,-3.15 c-1.7000000000000002,-2.95 -0.9,-4 3.4,-4.8100000000000005 c2.3,-0.43000000000000005 3.2,-1.01 2.6,-1.6300000000000001 c-0.7000000000000001,-0.6300000000000001 -1.7000000000000002,-0.5800000000000001 -3,0.12000000000000001 c-2.6,1.36 -4.2,1.4 -4.2,0.09000000000000002 c0,-0.55 0.9,-1 1.9,-1 c3.4,0 3.4,-1.97 0,-3.38 l-3.2,-1.34 l2.9,-0.7200000000000001 l2.9,-0.7200000000000001 l-2.8,-2.37 c-1.5,-1.3 -2.7,-2.6100000000000003 -2.7,-2.89 c0,-0.5700000000000001 5.6,0.25 8,1.17 c0.8,0.32000000000000006 1.8,0.6200000000000001 2.2,0.6700000000000002 c0.30000000000000004,0.04000000000000001 1,0.42000000000000004 1.4,0.8300000000000001 c1.5,1.56 10.4,0.39000000000000007 10.4,-1.36 c0,-0.49000000000000005 -1,-0.8900000000000001 -2.3,-0.9 c-1.2,-0.010000000000000002 -3.3,-1.11 -4.5,-2.45 c-1.4,-1.51 -2.9,-2.2 -3.9,-1.81 c-1.3,0.49000000000000005 -1.5,0.21000000000000002 -0.9,-1.3 c0.5,-1.49 0.4,-1.6600000000000001 -0.5,-0.7400000000000001 c-1.4,1.4100000000000001 -3.3,-0.030000000000000006 -4.3,-3.38 c-0.5,-1.42 -1.3,-1.9500000000000002 -2.5,-1.62 c-1.4,0.35000000000000003 -2,-0.2 -2.3,-2.1 c-0.5,-2.5700000000000003 0.5,-3.51 1.7000000000000002,-1.59 c0.9,1.54 4.5,1.19 5.1,-0.5 c0.30000000000000004,-0.8200000000000001 1.2,-1.5 2,-1.5 s1.4,-0.45 1.4,-1 s-0.7000000000000001,-1 -1.5,-1 s-1.5,-0.45 -1.5,-1 s-0.7000000000000001,-1 -1.6,-1 c-1.3,0 -1.4,-0.31000000000000005 -0.5,-1.34 c1.4,-1.71 0.2,-2.99 -1.5,-1.57 c-1,0.81 -1.3,0.5900000000000001 -1.1,-0.9400000000000001 c0,-1.11 0.6000000000000001,-1.78 1.1,-1.5 c0.6000000000000001,0.27 0.30000000000000004,-0.14 -0.7000000000000001,-0.93 c-0.9,-0.79 -1.7000000000000002,-1.7200000000000002 -1.7000000000000002,-2.08 c0,-1.36 2.3,-0.52 6.5,2.36 c2.4,1.6500000000000001 4.6,3 4.9,3 c1.5,0 0.30000000000000004,-2.94 -2.4,-5.71 c-2.1,-2.15 -2.7,-3.27 -1.8,-3.6500000000000004 c0.7000000000000001,-0.31000000000000005 0,-0.30000000000000004 -1.5,0.010000000000000002 c-2.1,0.43000000000000005 -2.7,0.19000000000000003 -2.7,-1.04 c0,-0.98 0.9,-1.6400000000000001 2.2,-1.6900000000000002 c1.3,-0.04000000000000001 1.7000000000000002,-0.30000000000000004 1,-0.5800000000000001 s-1.2,-1.22 -1.2,-2.09 s0.30000000000000004,-1.28 0.7000000000000001,-0.91 c0.30000000000000004,0.37000000000000005 1.7000000000000002,-0.010000000000000002 3,-0.8500000000000001 c1.3,-0.9 4,-1.4100000000000001 6.4,-1.26 c2.7,0.18000000000000002 4.3,-0.18000000000000002 4.6,-1.01 c0.30000000000000004,-0.7000000000000001 0.1,-1.21 -0.4,-1.13 c-0.4,0.08000000000000002 -1.5,0.09000000000000002 -2.3,0.020000000000000004 c-1.3,-0.12000000000000001 -1.3,-0.24000000000000002 0,-1.11 c1.3,-0.8300000000000001 1.2,-0.97 -0.2,-0.98 c-1.9,-0.020000000000000004 -3.5,-4.13 -2.4,-5.9 c0.4,-0.5900000000000001 2.7,0.29000000000000004 5.7,2.13 c4.2,2.6100000000000003 5.2,2.9 5.9,1.7000000000000002 c1.4,-2.09 1.2,-3.55 -0.2,-2.15 c-0.7000000000000001,0.6600000000000001 -1.9,1.2 -2.6,1.2 c-1.2,0 -1.2,-0.29000000000000004 -0.2,-1.47 c0.9,-1.18 0.8,-1.81 -0.5,-3.2 c-1.2,-1.12 -1.4,-1.87 -0.6000000000000001,-2.12 c0.6000000000000001,-0.2 1.1,-0.8200000000000001 1.1,-1.36 c0,-0.55 -1,-0.6800000000000002 -2.1,-0.31000000000000005 c-1.5,0.46 -1.9,0.32000000000000006 -1.5,-0.43000000000000005 c0.4,-0.6300000000000001 0,-1.11 -0.9,-1.11 c-0.8,0 -1.5,-0.42000000000000004 -1.5,-0.9400000000000001 c0,-1.98 2,-2.02 5.1,-0.11000000000000001 c3,1.79 3.6,1.85 5.6,0.54 c1.2,-0.81 2.8,-1.21 3.6,-0.91 c0.8,0.31000000000000005 1.8,0.08000000000000002 2.1,-0.51 c0.4,-0.5900000000000001 0.2,-1.07 -0.4,-1.07 c-0.5,0 -1,-0.78 -1,-1.75 c-0.1,-1.58 -0.2,-1.56 -1.5,0.19000000000000003 c-1.8,2.3200000000000003 -2,1.32 -0.4,-1.75 c1.2,-2.18 1.2,-2.18 -1,-0.26 s-2.2,1.92 -3.4,-1.25 c-0.7000000000000001,-1.9 -1.8,-3.07 -2.7,-2.92 s-1.6,-0.6700000000000002 -1.9,-2.14 c-0.2,-2.09 0,-2.3 2.2,-1.75 c3.6,0.8900000000000001 6.1,-0.19000000000000003 4.6,-1.97 c-0.6000000000000001,-0.7500000000000001 -0.9,-2.06 -0.5,-2.91 c0.4,-1.24 0.2,-1.34 -1.4,-0.51 c-3.1,1.6700000000000002 -4.1,1.24 -3.4,-1.48 c0.4,-1.59 0.2,-2.5 -0.6000000000000001,-2.5 c-0.6000000000000001,0 -0.8,-0.47000000000000003 -0.5,-1.04 c0.4,-0.5700000000000001 0.1,-1.81 -0.7000000000000001,-2.75 c-0.7000000000000001,-0.9400000000000001 0.7000000000000001,0.11000000000000001 3.2,2.3200000000000003 c2.5,2.22 5.9,4.640000000000001 7.7,5.37 s3,1.73 2.7,2.22 s-0.2,0.91 0.30000000000000004,0.9500000000000001 c0.4,0.04000000000000001 2.2,0.26 4,0.49000000000000005 c2,0.26 3.3,-0.010000000000000002 3.3,-0.6700000000000002 c0,-0.6100000000000001 0.6000000000000001,-0.8800000000000001 1.3,-0.6000000000000001 c0.8,0.29000000000000004 1,0.7100000000000001 1.1,-0.51 c0.1,-1.53 0.30000000000000004,-0.2 -0.6000000000000001,-0.6800000000000002 c-1.7000000000000002,-0.97 -4.8,0.27 -4.8,-1.1 c0,-0.55 -0.8,-1 -1.8,-1 s-2.7,-0.6600000000000001 -3.9,-1.46 c-1.1,-0.81 -2.3,-1.18 -2.7,-0.8300000000000001 c-0.30000000000000004,0.3400000000000001 -0.6000000000000001,-0.12000000000000001 -0.6000000000000001,-1.04 v-2.42 c0,-1.6800000000000002 6.8,-0.7100000000000001 10.7,1.54 l4.3,0.7400000000000001 v-1.03 c0,-1.84 -0.6000000000000001,-2.85 -2,-3.21 c-2.1,-0.53 -2.8,-2.29 -1,-2.29 c0.6000000000000001,0 0.6000000000000001,-0.6900000000000002 -0.1,-1.83 c-1.2,-1.9300000000000002 -6,-1.86 -5.6,0.08000000000000002 c0.1,0.56 -1.1,1.3800000000000001 -2.6,1.8 c-1.7000000000000002,0.49000000000000005 -2.7,0.4 -2.7,-0.26 c0,-0.6500000000000001 -0.5,-0.6000000000000001 -1.4,0.14 c-1,0.8 -1.6,0.8400000000000001 -2.1,0.13 c-0.30000000000000004,-0.5800000000000001 0.4,-1.47 1.7000000000000002,-1.98 c8.9,-3.64 10.8,-4.59 11.3,-5.890000000000001 c0.4,-1.1400000000000001 0.2,-1.22 -0.8,-0.3400000000000001 c-0.8,0.6300000000000001 -1.7000000000000002,0.8400000000000001 -2,0.49000000000000005 c-0.4,-0.36000000000000004 -3,-0.5700000000000001 -5.9,-0.47000000000000003 c-5.1,0.18000000000000002 -6.3,-0.5 -2.1,-1.1400000000000001 c3.3,-0.5 5.3,-2.72 4.9,-5.3100000000000005 c-0.4,-2.07 -0.2,-2.21 1.4,-1.18 c1,0.6400000000000001 1.7000000000000002,1.4100000000000001 1.5,1.71 c-0.2,0.31000000000000005 1.2,0.6700000000000002 3.1,0.81 c2,0.14 3.3,-0.12000000000000001 3,-0.5700000000000001 c-0.30000000000000004,-0.46 0.1,-2 0.8,-3.44 c1.2,-2.22 1.2,-2.5300000000000002 0,-2.07 c-0.9,0.36000000000000004 -1.4,-0.17 -1.4,-1.57 c0,-1.1600000000000001 -0.6000000000000001,-2.11 -1.4,-2.11 s-1.6,-0.8300000000000001 -1.9,-1.84 c-0.4,-1.73 -0.2,-1.7200000000000002 3.3,0.23 c2.1,1.1400000000000001 3.7,2.31 3.5,2.59 c-0.2,0.29000000000000004 1.2,0.6400000000000001 3.2,0.78 c3.1,0.23 3.3,0.11000000000000001 1.9,-1.32 c-0.9,-0.8700000000000001 -1.6,-1.8900000000000001 -1.6,-2.26 c0,-0.38000000000000006 -1.4,-1.29 -3,-2.02 c-1.7000000000000002,-0.7400000000000001 -2.7,-1.8 -2.4,-2.39 c0.4,-0.5900000000000001 0.1,-1.56 -0.7000000000000001,-2.17 c-0.8,-0.6000000000000001 -1.9,-2.5300000000000002 -2.6,-4.29 c-1,-3 -1,-3.12 0.8,-2 c1.1,0.6500000000000001 1.7000000000000002,1.6400000000000001 1.5,2.19 s0.9,1.1 2.5,1.21 c1.9,0.14 2.9,-0.26 2.9,-1.22 c0,-0.93 0.6000000000000001,-1.2 1.7000000000000002,-0.77 c1.4,0.54 1.3,0.24000000000000002 -0.4,-1.57 c-2.5,-2.6900000000000004 -2.5,-6.71 -0.1,-6.51 c1,0.07 2,-0.7200000000000001 2.3,-1.77 c0.4,-1.04 1,-1.6600000000000001 1.5,-1.36 c0.5,0.29000000000000004 1.1,0.1 1.4,-0.42000000000000004 c0.4,-0.52 -0.30000000000000004,-1.23 -1.4,-1.58 s-2,-1.3800000000000001 -2,-2.27 c0,-1.27 0.30000000000000004,-1.37 1.2,-0.44000000000000006 c1.6,1.6400000000000001 2.8,1.51 2.8,-0.30000000000000004 c0,-0.8200000000000001 0.5,-1.5 1.1,-1.5 s2.3,-0.93 3.7,-2.07 c1.5,-1.1400000000000001 2.8,-1.62 3,-1.06 c0.4,1.4 -3.7,5.34 -4.8,4.62 c-0.6000000000000001,-0.33000000000000007 -0.7000000000000001,0.1 -0.4,0.9600000000000001 s0.1,1.55 -0.5,1.55 s-1.1,0.91 -1.1,2.02 c0,2.01 0,2.01 4.2,-0.11000000000000001 c2.4,-1.18 5,-2.79 5.9,-3.59 c1.2,-1.04 1.9,-1.13 2.4,-0.31000000000000005 c0.4,0.6600000000000001 -0.2,1.35 -1.4,1.6700000000000002 c-1.1,0.30000000000000004 -2.3,1.4 -2.7,2.45 c-0.30000000000000004,1.04 -0.9,1.6700000000000002 -1.4,1.3900000000000001 c-0.9,-0.5800000000000001 -2.1,1.9 -2.6,5.33 c-0.2,1.29 -1.1,2.94 -2.1,3.67 c-2.7,1.9500000000000002 -1.2,2.64 2.1,0.9500000000000001 c1.5,-0.81 3.4,-1.47 4.1,-1.47 s2.7,-1.1600000000000001 4.4,-2.59 c2.9,-2.44 3.1,-2.47 3.1,-0.56 c0,1.13 -0.9,2.29 -2,2.6500000000000004 c-1.1,0.3400000000000001 -1.9,1.1400000000000001 -1.7000000000000002,1.77 c0.1,0.6300000000000001 -0.5,1.1600000000000001 -1.3,1.19 c-1.5,0.04000000000000001 -2.8,3.55 -1.3,3.54 c0.4,-0.010000000000000002 2.1,-0.6900000000000002 3.7,-1.52 s3.1,-1.28 3.4,-0.99 c0.30000000000000004,0.28 -0.1,0.52 -0.9,0.53 c-1,0.010000000000000002 -1.1,0.22000000000000003 -0.2,0.78 c1.9,1.21 -0.2,3.45 -3.2,3.45 c-2.5,0 -2.7,0.24000000000000002 -2.2,3.38 c0.5,2.99 0.30000000000000004,3.37 -1.7000000000000002,3.37 c-1.2,0 -2.7,-0.48000000000000004 -3.3,-1.06 c-0.7000000000000001,-0.7600000000000001 -1.2,-0.43000000000000005 -1.6,1.12 c-0.6000000000000001,2.05 -0.30000000000000004,2.14 3.6,1.52 c2.3,-0.36000000000000004 5.9,-1.47 7.9,-2.47 c3.2,-1.57 3.6,-1.6 2.8,-0.21000000000000002 c-1.6,2.67 -4.8,6.1 -5.7,6.1 c-1.7000000000000002,0 -6.5,5.24 -5.6,6.13 c1.4,1.3800000000000001 9.5,-1.82 13.2,-5.22 c2.4,-2.15 3.7,-2.73 4.4,-1.97 c0.8,0.7500000000000001 0.7000000000000001,1.06 -0.2,1.06 c-0.7000000000000001,0 -0.9,0.48000000000000004 -0.6000000000000001,1.05 c0.4,0.5800000000000001 -0.5,2.1 -1.8,3.38 c-2,1.79 -2.3,2.6100000000000003 -1.4,3.52 c0.7000000000000001,0.6600000000000001 0.7000000000000001,1.07 0.2,0.93 c-2.3,-0.6100000000000001 -5.5,1.34 -5.5,3.2800000000000002 c0,1.19 -0.8,2.25 -2,2.55 c-1.1,0.29000000000000004 -2,0.91 -2,1.3800000000000001 s-0.8,0.56 -1.7000000000000002,0.21000000000000002 c-1.1,-0.44000000000000006 -1.4,-0.26 -0.9,0.5700000000000001 c1.3,2.14 5.3,0.04000000000000001 12.1,-6.37 c1.2,-1.1 3,-2.67 4,-3.5 c1.7000000000000002,-1.36 1.8,-1.33 1.2,0.25 c-0.4,0.97 -0.2,1.75 0.30000000000000004,1.75 s0.2,0.8900000000000001 -0.7000000000000001,1.97 c-2.5,2.9 -2.8,7.03 -0.6000000000000001,7.06 c1.6,0.030000000000000006 1.6,0.16000000000000003 -0.2,1.19 c-1.1,0.6400000000000001 -2.1,0.9600000000000001 -2.2,0.7200000000000001 c-0.2,-0.24000000000000002 -1,0.5800000000000001 -1.9,1.81 c-0.9,1.29 -2.6,2.25 -4,2.25 c-3.1,0 -3.1,1.37 0.1,2.8200000000000003 c1.7000000000000002,0.7600000000000001 3.3,0.8200000000000001 5,0.18000000000000002 c1.5,-0.5800000000000001 2.5,-0.5800000000000001 2.5,-0.020000000000000004 c0,0.51 1.1,-0.17 2.4,-1.52 c1.4,-1.35 3.1,-2.46 3.9,-2.46 s1.7000000000000002,-0.9 2,-2 c0.6000000000000001,-2.54 1.9,-2.54 3.5,0 c1,1.7200000000000002 1,2.01 -0.6000000000000001,2.02 c-1.4,0.010000000000000002 -1.5,0.16000000000000003 -0.2,0.9400000000000001 c1.2,0.8 1.2,1.04 -0.30000000000000004,1.62 c-1,0.37000000000000005 -1.6,1.29 -1.3,2.02 c0.30000000000000004,0.7400000000000001 -0.2,2 -1,2.81 c-0.9,0.97 -1.1,1.6900000000000002 -0.4,2.12 c1.4,0.8300000000000001 -0.7000000000000001,3.47 -2.6,3.47 c-0.8,0 -1.4,0.48000000000000004 -1.4,1.06 c0,0.7000000000000001 1.6,0.8300000000000001 4.7,0.38000000000000006 c2.6,-0.38000000000000006 4.4,-0.32000000000000006 4,0.13 c-0.8,0.81 -1.6,1.06 -6.7,1.8900000000000001 c-1.4,0.22000000000000003 -2.7,0.49000000000000005 -3,0.5900000000000001 c-0.30000000000000004,0.09000000000000002 -1.6,0.15000000000000002 -3,0.13 c-1.9,-0.04000000000000001 -2.1,0.08000000000000002 -0.6000000000000001,0.5 c3.2,0.9 4.5,2.68 3,4.1 c-0.7000000000000001,0.6700000000000002 -2.1,1.22 -3,1.22 c-1.3,0 -1.4,0.31000000000000005 -0.5,1.35 c0.6000000000000001,0.7300000000000001 0.8,1.62 0.4,1.97 c-0.30000000000000004,0.35000000000000003 0.1,0.92 1,1.26 c0.9,0.35000000000000003 1.4,1.04 1.1,1.53 c-1.5,2.51 12.5,-1.36 14.6,-4.01 c0.9,-1.12 6.1,-4.27 6.5,-3.89 c0.2,0.2 -0.2,1.47 -0.9,2.83 c-0.8,1.6 -1.9,2.35 -3.2,2.14 c-1.9,-0.32000000000000006 -1.9,-0.29000000000000004 0.1,1.21 c1.7000000000000002,1.3 1.7000000000000002,1.55 0.30000000000000004,1.58 c-1.7000000000000002,0.04000000000000001 -3.2,2.64 -2.3,4.12 c0.4,0.5 -0.30000000000000004,0.91 -1.4,0.91 c-1.4,0 -2.3,0.8600000000000001 -2.7,2.54 c-0.4,1.3900000000000001 -1.9,3.2 -3.5,4.01 c-1.8,0.9500000000000001 -2.6,2 -2.3,2.96 c0.30000000000000004,0.8200000000000001 0.8,1.49 1,1.49 c1.7000000000000002,0 15.3,-7.17 16.8,-8.88 c1.9,-2.17 5.6,-2.9 5.6,-1.12 c0,0.55 -1,1.01 -2.3,1.02 c-1.6,0.010000000000000002 -1.8,0.25 -0.9,0.8700000000000001 c1.5,0.9500000000000001 0.7000000000000001,5.11 -0.9,5.11 c-0.6000000000000001,0 -0.8,0.45 -0.4,1 c0.30000000000000004,0.55 0.1,1 -0.5,1 s-0.9,0.42000000000000004 -0.6000000000000001,0.93 c0.4,0.51 -0.4,1.08 -1.6,1.25 c-1.3,0.18000000000000002 -2.3,1 -2.3,1.82 c0,0.9 -1.1,1.6300000000000001 -2.8,1.82 c-1.5,0.17 -2.7,0.91 -2.7,1.6300000000000001 s-1,2.02 -2.3,2.88 c-1.9,1.36 -2,1.58 -0.4,1.62 c1,0.030000000000000006 1.6,0.46 1.2,0.9600000000000001 c-0.8,1.4100000000000001 3.7,0 6.6,-2.06 c1.5,-1.02 3,-1.85 3.4,-1.85 c0.30000000000000004,0 2.1,-1.1400000000000001 4,-2.55 c3.3,-2.51 5.1,-2.1 3.9,0.9 c-0.30000000000000004,0.8400000000000001 -1.1,1.31 -1.8,1.05 c-0.7000000000000001,-0.27 -1.3,0.21000000000000002 -1.3,1.06 s0.7000000000000001,1.58 1.6,1.62 c0.9,0.05000000000000001 1.1,0.28 0.4,0.5700000000000001 c-0.7000000000000001,0.26 -0.9,1.18 -0.6000000000000001,2.03 c0.5,1.31 0.2,1.37 -1.6,0.4 c-2.1,-1.1600000000000001 -3.1,0.18000000000000002 -1,1.47 c1.5,0.98 -2.7,4.5600000000000005 -4.6,3.84 c-0.8,-0.33000000000000007 -1.5,-0.09000000000000002 -1.5,0.54 c0,0.6200000000000001 0.6000000000000001,1.3800000000000001 1.4,1.6900000000000002 c0.8,0.30000000000000004 1.2,1.18 0.9,1.96 s-0.9,1.1600000000000001 -1.4,0.8600000000000001 c-0.5,-0.31000000000000005 -0.9,0.15000000000000002 -0.9,1 c0,2.81 2.5,1.6500000000000001 7.5,-3.52 c5.3,-5.43 10,-8.46 10.9,-7.03 c0.30000000000000004,0.49000000000000005 -0.1,1.44 -0.9,2.12 c-2,1.62 -1.9,5.88 0.1,8.07 c1.3,1.46 1.3,2.06 0.2,3.84 c-0.7000000000000001,1.1600000000000001 -1.9,1.8900000000000001 -2.6,1.6300000000000001 c-0.7000000000000001,-0.27 -1.2,-0.06000000000000001 -1.2,0.45 c0,0.52 -0.7000000000000001,0.6800000000000002 -1.5,0.37000000000000005 c-1.8,-0.7000000000000001 -2,0.7400000000000001 -0.30000000000000004,2.56 c1.1,1.08 0.9,1.13 -0.8,0.23 c-2.5,-1.25 -3.4,-0.6500000000000001 -3.4,2.12 c0,1.6 -0.5,1.83 -2.8,1.3 c-1.8,-0.42000000000000004 -2.3,-0.33000000000000007 -1.3,0.28 c1.7000000000000002,1.17 0.5,3.25 -1.5,2.49 c-1,-0.39000000000000007 -1.3,-0.1 -0.8,0.9600000000000001 c0.5,1.37 0.9,1.37 4.2,0.020000000000000004 c2,-0.8200000000000001 5.6,-3.3200000000000003 7.9,-5.55 l4.1,-4.04 l-0.5,4.38 c-0.4,2.41 -1,4.54 -1.5,4.72 c-1.6,0.6300000000000001 -3.9,6.01 -2.8,6.67 c0.5,0.33000000000000007 1,0.98 1,1.44 c0,1.23 -5.4,2.04 -6.5,0.98 c-1.3,-1.33 -2.5,-1.1400000000000001 -2.5,0.41000000000000003 c0,0.7300000000000001 1.6,1.83 3.6,2.43 c4,1.24 8.1,0.24000000000000002 10.1,-2.5 c1.2,-1.49 1.3,-1.46 1.3,0.35000000000000003 c0,1.11 -0.9,2.99 -2.1,4.19 c-1.1,1.21 -1.6,2.2 -1.2,2.22 c0.4,0.010000000000000002 -0.7000000000000001,0.7400000000000001 -2.4,1.61 c-1.8,0.8800000000000001 -3,2 -2.7,2.49 c0.8,1.37 -2.5,2.23 -3.9,1.02 c-1,-0.8 -1.8,-0.55 -3.1,0.9600000000000001 c-0.9,1.11 -2.7,1.9500000000000002 -3.9,1.85 c-3.5,-0.28 -4.4,0.12000000000000001 -2.2,0.99 c1.2,0.49000000000000005 3.3,0.29000000000000004 5.2,-0.49000000000000005 c2.7,-1.1 3.4,-1.08 4.4,0.14 c0.6000000000000001,0.8 1.9,1.23 2.8,0.97 c0.9,-0.27 2.8,-0.7000000000000001 4.3,-0.9600000000000001 c1.6,-0.26 3.8,-0.78 4.9,-1.15 c2,-0.6300000000000001 2,-0.43000000000000005 -0.6000000000000001,2.87 c-1.5,2.08 -3.2,3.33 -4,3.02 c-1.9,-0.7100000000000001 -5,1.73 -5,3.9 c0,0.97 -0.30000000000000004,1.6400000000000001 -0.7000000000000001,1.5 c-0.30000000000000004,-0.13 -1.6,0.81 -2.7,2.1 c-1.1,1.28 -2.5,2.06 -3,1.73 c-1.7000000000000002,-1.04 -2.5,1.6600000000000001 -0.9,2.8600000000000003 c1.2,0.8800000000000001 0.2,1.11 -4.8,1.04 c-5.5,-0.08000000000000002 -6.4,0.16000000000000003 -6.4,1.6800000000000002 c0,1.17 -0.5,1.58 -1.5,1.21 c-0.8,-0.32000000000000006 -2.3,-0.24000000000000002 -3.3,0.18000000000000002 c-0.9,0.41000000000000003 -2.7,0.6500000000000001 -4,0.53 c-3.6,-0.36000000000000004 -2.5,1.6300000000000001 1.5,2.81 l3.8,1.08 l-4.8,-0.47000000000000003 c-2.7,-0.26 -4.7,-0.05000000000000001 -4.7,0.52 c0,0.54 1,1.02 2.2,1.05 c2.2,0.07 2.2,0.11000000000000001 0.30000000000000004,0.8900000000000001 c-1.5,0.6000000000000001 -2.7,0.19000000000000003 -4.6,-1.57 c-2.6,-2.42 -4.5,-3.22 -3.4,-1.3900000000000001 c0.30000000000000004,0.55 0.1,1 -0.5,1 c-2.4,0 -0.8,1.81 2.2,2.42 c2.9,0.5900000000000001 3.1,0.8 1.5,1.71 c-1,0.5700000000000001 -2.6,0.7100000000000001 -3.5,0.30000000000000004 c-1,-0.41000000000000003 -2,-0.6800000000000002 -2.4,-0.6100000000000001 s-1.3,-1.2 -2,-2.84 c-1.6,-3.71 -2.6,-3.7800000000000002 -3,-0.23 c-0.2,1.85 -0.8,2.64 -1.8,2.4 c-5.6,-1.29 -6,-1.05 -6,3.24 c0,4.02 1.4,15.38 2.6,20.86 c0.5,2.63 0.4,2.75 -3.3,2.75 h-3.9 l0.4,-7.02 zm-15.8,-20.98 c1,-0.1 1.1,-0.33000000000000007 0.30000000000000004,-0.6400000000000001 c-0.7000000000000001,-0.27 -0.9,-1.21 -0.6000000000000001,-2.09 c0.5,-1.27 0.2,-1.45 -1.3,-0.8400000000000001 c-3.2,1.28 -4.9,1.37 -6.2,0.32000000000000006 c-0.8,-0.6600000000000001 -1.2,-0.6500000000000001 -1.2,0.06000000000000001 c0,0.5700000000000001 -0.8,1.24 -1.8,1.47 c-1.5,0.36000000000000004 -1.4,0.54 0.5,1.32 c1.9,0.79 5.3,0.92 10.3,0.4 zm-25,-16.26 c0,-0.48000000000000004 -0.7000000000000001,-0.2 -1.5,0.6200000000000001 c-0.8,0.8300000000000001 -1.5,2.1 -1.5,2.8200000000000003 c0.1,1.46 3,-1.94 3,-3.44 zm14,-4.8 c0,-0.51 -0.5,-0.9400000000000001 -1.1,-0.9400000000000001 s-0.9,-0.77 -0.5,-1.75 c0.5,-1.62 0.5,-1.61 -0.8,0.04000000000000001 c-1.1,1.47 -1.6,1.56 -2.8,0.5 c-1.5,-1.5 -8.8,-2.09 -8.8,-0.7200000000000001 c0,0.52 -0.7000000000000001,0.93 -1.5,0.93 c-2.1,0 -1.9,1.78 0.2,2.22 c3.9,0.8 15.3,0.5900000000000001 15.3,-0.28 zm10,0.06000000000000001 c0,-1.29 -1.7000000000000002,-1.29 -2.5,0 c-0.4,0.55 0.1,1 0.9,1 c0.9,0 1.6,-0.45 1.6,-1 zm14.5,-1.99 c0.30000000000000004,-0.56 -0.1,-0.7300000000000001 -1,-0.39000000000000007 c-1.7000000000000002,0.6700000000000002 -2,1.3800000000000001 -0.6000000000000001,1.3800000000000001 c0.5,0 1.2,-0.44000000000000006 1.6,-0.99 zm42.5,-2.01 c0,-0.55 -0.7000000000000001,-1 -1.5,-1 s-1.5,0.45 -1.5,1 s0.7000000000000001,1 1.5,1 s1.5,-0.45 1.5,-1 zm-82,-1.3800000000000001 c0,-0.21000000000000002 -0.9,-0.6200000000000001 -2,-0.91 c-1.1,-0.28 -1.8,-0.11000000000000001 -1.5,0.39000000000000007 c0.6000000000000001,0.8700000000000001 3.5,1.31 3.5,0.52 zm82.5,-1.62 c-0.8,-1.28 -1.5,-1.28 -1.5,0 c0,0.55 0.5,1 1,1 c0.6000000000000001,0 0.8,-0.45 0.5,-1 zm-78,-4 c0.30000000000000004,-0.55 -0.4,-0.99 -1.7000000000000002,-0.98 c-1.9,0.010000000000000002 -2,0.2 -0.8,0.98 c1.8,1.21 1.7000000000000002,1.21 2.5,0 zm4.5,-1.06 c0,-0.5800000000000001 -0.5,-0.78 -1,-0.44000000000000006 c-1.3,0.8 -1.3,1.5 0,1.5 c0.5,0 1,-0.47000000000000003 1,-1.06 zm-16.3,-1.09 c0.9,-0.8500000000000001 1.6,-0.8600000000000001 2.5,-0.07 c1,0.81 2.2,0.6700000000000002 4.7,-0.54 c1.9,-0.9 2.9,-1.81 2.2,-2.03 c-0.6000000000000001,-0.22000000000000003 -1.9,0.18000000000000002 -2.7,0.8800000000000001 c-1.3,1.03 -1.7000000000000002,1.04 -2.3,0.020000000000000004 c-0.7000000000000001,-0.99 -1.7000000000000002,-1.01 -5.1,-0.1 c-3.2,0.8600000000000001 -4,1.4 -2.9,2.06 c1.8,1.18 2.3,1.1600000000000001 3.6,-0.22000000000000003 zm102.6,-3.7800000000000002 c1,-0.9600000000000001 -1,-1.01 -6.6,-0.18000000000000002 c-0.4,0.06000000000000001 -0.7000000000000001,0.5900000000000001 -0.7000000000000001,1.17 c0,1.31 5.8,0.52 7.3,-0.99 zm-97.8,-4.06 c0.30000000000000004,-0.56 -0.1,-0.7300000000000001 -1,-0.39000000000000007 c-1.7000000000000002,0.6700000000000002 -2,1.3800000000000001 -0.6000000000000001,1.3800000000000001 c0.5,0 1.2,-0.44000000000000006 1.6,-0.99 zm5,-14.01 c-0.8,-1.28 -1.5,-1.28 -1.5,0 c0,0.55 0.5,1 1,1 c0.6000000000000001,0 0.8,-0.45 0.5,-1 zm1.4,-4.9 c1.8,-1.13 0.4,-3.41 -1.7000000000000002,-2.64 c-0.8,0.32000000000000006 -2.6,-0.13 -3.9,-1.02 c-1.6,-1.01 -3.4,-1.37 -5,-0.97 c-3.1,0.7600000000000001 -2.5,1.48 3,3.66 c5,2 5.8,2.1 7.6,0.97 zm100.1,-5.17 c0,-1.73 -3.1,-4.37 -3.9,-3.27 c-0.30000000000000004,0.55 -1.4,1.28 -2.4,1.6300000000000001 c-3.1,1.1600000000000001 -1.8,2.71 2.3,2.71 c2.2,0 4,-0.48000000000000004 4,-1.07 zm-94.8,-3.6100000000000003 c-0.7000000000000001,-0.29000000000000004 -1.6,-0.25 -1.9,0.08000000000000002 c-0.4,0.33000000000000007 0.2,0.5700000000000001 1.3,0.52 c1.1,-0.04000000000000001 1.4,-0.28 0.6000000000000001,-0.6000000000000001 zm4.8,-12.32 c-1.3,-0.8 -1.2,-0.97 0.5,-1 c1.6,-0.020000000000000004 1.7000000000000002,-0.2 0.5,-0.9500000000000001 c-0.9,-0.5800000000000001 -1.9,-0.56 -2.6,0.06000000000000001 c-0.8,0.6100000000000001 -1.5,0.6300000000000001 -1.8,0.05000000000000001 c-0.30000000000000004,-0.52 0.1,-1.21 0.9,-1.52 c0.8,-0.32000000000000006 1.5,-1.15 1.5,-1.86 c0,-0.8500000000000001 -0.30000000000000004,-0.92 -0.8,-0.2 c-1.1,1.61 -4.1,2.47 -4.8,1.36 c-0.30000000000000004,-0.53 -1,-0.7100000000000001 -1.5,-0.39000000000000007 c-0.5,0.31000000000000005 -0.9,0.1 -0.9,-0.48000000000000004 c0,-0.5700000000000001 -1,-0.9400000000000001 -2.3,-0.8 c-1.6,0.17 -2.2,-0.27 -2.1,-1.52 c0.1,-1.01 -0.5,-1.7400000000000002 -1.5,-1.73 c-7.4,0.07 -2.3,6.66 6.6,8.57 c7.5,1.61 10.4,1.7600000000000002 8.3,0.41000000000000003 zm58,-12 c0,-0.55 -0.5,-1 -1,-1 c-0.6000000000000001,0 -1,0.45 -1,1 s0.4,1 1,1 c0.5,0 1,-0.45 1,-1 zm-62,-1 c1.2,-0.78 1.1,-0.97 -0.8,-0.98 c-1.2,-0.010000000000000002 -2.2,0.43000000000000005 -2.2,0.98 c0,1.26 1,1.26 3,0 zm11.5,-13.08 c1.1,-1.6700000000000002 -1.2,-3.58 -2.6,-2.2 c-1.2,1.15 -0.5,3.2800000000000002 1.1,3.2800000000000002 c0.5,0 1.2,-0.49000000000000005 1.5,-1.08 zm5,-1.92 c-0.8,-1.28 -1.5,-1.28 -1.5,0 c0,0.55 0.5,1 1,1 c0.6000000000000001,0 0.8,-0.45 0.5,-1 zm40.5,-6 c0,-0.55 -0.5,-1 -1.1,-1 s-0.8,0.45 -0.4,1 c0.8,1.28 1.5,1.28 1.5,0 zm-39.5,-4 c0.30000000000000004,-0.55 0.2,-1 -0.4,-1 c-0.5,0 -1.3,0.45 -1.6,1 c-0.4,0.55 -0.2,1 0.4,1 c0.5,0 1.2,-0.45 1.6,-1 zm-5.8,-1.25 c-0.4,-1.4100000000000001 -2,-1.26 -2.5,0.25 c-0.2,0.55 0.4,1 1.3,1 s1.5,-0.56 1.2,-1.25 zm-3.7,-1.8 c0,-1.6 -2.2,-2.19 -3.1,-0.8200000000000001 c-1.4,2.15 -1.1,2.73 1.1,2.16 c1.1,-0.28 2,-0.8900000000000001 2,-1.34 zm45,-6.47 c3.8,-1.92 3.7,-2.24 0,-1.6900000000000002 c-1.6,0.24000000000000002 -2.8,0.8 -2.5,1.25 s-0.5,1.02 -1.7000000000000002,1.26 c-1.6,0.30000000000000004 -1.8,0.47000000000000003 -0.5,0.5700000000000001 c1,0.07 3.1,-0.55 4.7,-1.3900000000000001 zm-12,-11.04 c0,-0.24000000000000002 -0.7000000000000001,-0.44000000000000006 -1.6,-0.44000000000000006 c-0.8,0 -1.2,0.46 -0.9,1.02 c0.6000000000000001,0.92 2.5,0.48000000000000004 2.5,-0.5800000000000001 zm-13,-14.76 c0,-0.9400000000000001 -1,-1.18 -3.3,-0.8300000000000001 c-3.1,0.49000000000000005 -3.1,0.53 -0.7000000000000001,1.23 c3.7,1.07 4,1.04 4,-0.4 zm-39.7,155.72 c0.30000000000000004,-0.33000000000000007 1.2,-0.37000000000000005 1.9,-0.08000000000000002 c0.8,0.32000000000000006 0.5,0.56 -0.6000000000000001,0.6000000000000001 c-1.1,0.05000000000000001 -1.7000000000000002,-0.19000000000000003 -1.3,-0.52 zm17.7,-161.3 c-1.2,-2.33 -1.3,-3.1 -0.30000000000000004,-3.1 c1.4,0 3.3,3.87 2.3,4.49 c-0.5,0.31000000000000005 -1.4,-0.31000000000000005 -2,-1.3900000000000001 zm15,-30.24 c0,-0.47000000000000003 0.4,-0.8600000000000001 0.9,-0.8600000000000001 s1.6,-0.27 2.5,-0.6000000000000001 c0.9,-0.3400000000000001 1.6,-0.16000000000000003 1.6,0.38000000000000006 s-1.1,1.21 -2.5,1.47 s-2.5,0.09000000000000002 -2.5,-0.39000000000000007 zm8.9,-7.54 c-1.3,-1.5 -1.2,-1.61 0.6000000000000001,-1 c1.9,0.6600000000000001 1.9,0.6300000000000001 0.1,-0.7500000000000001 c-1.7000000000000002,-1.32 -1.5,-1.42 1.8,-1.25 c2,0.1 3.6,0.30000000000000004 3.6,0.43000000000000005 c0,0.4 -4,4.25 -4.4,4.25 c-0.2,0 -1,-0.7600000000000001 -1.7000000000000002,-1.6800000000000002 zm-0.30000000000000004,-7.02 c-1.7000000000000002,-2.29 -1.7000000000000002,-2.56 -0.30000000000000004,-2 c0.9,0.35000000000000003 1.7000000000000002,0.2 1.7000000000000002,-0.33000000000000007 s0.5,-0.97 1.1,-0.97 c0.8,0 0.8,0.37000000000000005 0.1,1.29 c-1.4,1.59 -0.30000000000000004,3.3200000000000003 2.3,3.98 c1.6,0.41000000000000003 1.5,0.52 -0.5,0.5900000000000001 c-1.6,0.05000000000000001 -3.2,-0.8600000000000001 -4.4,-2.56 zm0.5,-6.54 c-1.5,-1.56 -1.4,-2.7600000000000002 0.30000000000000004,-2.7600000000000002 c1.6,0 2.9,2.68 1.7000000000000002,3.43 c-0.4,0.27 -1.3,-0.030000000000000006 -2,-0.6700000000000002 zm0.6000000000000001,-8.1 c-0.30000000000000004,-0.7300000000000001 -0.1,-1.97 0.4,-2.75 c0.6000000000000001,-1.02 0.9,-0.6600000000000001 0.9,1.34 c0,2.99 -0.5,3.5300000000000002 -1.3,1.4100000000000001 z" fill="#00b800" fill-opacity="1"/>
  </g></g></svg>