<svg id="SvgjsSvg1026" width="288" height="288" xmlns="http://www.w3.org/2000/svg" version="1.1" xmlns:xlink="http://www.w3.org/1999/xlink" xmlns:svgjs="http://svgjs.com/svgjs"><defs id="SvgjsDefs1027"></defs><g id="SvgjsG1028"><svg xmlns="http://www.w3.org/2000/svg" version="1.0" viewBox="0 0 229 309.05" width="288" height="288"><path d="m940.22 92.68c-2.11 0.11-4.22 0.776-5.47 1.937-1.76 1.639-2.49 1.809-3.65 0.844-1.17-0.97-1.47-0.899-1.47 0.406 0 0.983-0.82 1.625-2.09 1.625-1.47 0-1.94 0.459-1.54 1.5 0.44 1.128-0.17 1.498-2.4 1.498-1.63 0-2.97 0.45-2.97 1 0 1.58-1.84 1.19-4.88-1.06-1.54-1.139-4.67-2.205-6.96-2.375-2.29-0.171-4.8-0.869-5.6-1.532s-1.95-0.875-2.56-0.5c-0.73 0.454-0.52 1.156 0.69 2.094 1.66 1.297 1.6 1.375-0.94 0.969-1.52-0.243-3.77-0.718-5-1.031l-2.25-0.563 2.25 1.156c3.32 1.712 2.9 4.772-0.75 5.502-3.12 0.62-3.9 1.82-1.75 2.69 0.69 0.27 0.24 0.55-1 0.59-2.7 0.09-2.86 0.92-0.5 2.66 2.45 1.81 0.56 3.41-4.22 3.59-2.54 0.09-4.22-0.39-5.03-1.5-1.34-1.83-3.5-2.27-3.5-0.69 0 0.55-0.45 1-1 1s-1-0.69-1-1.56c0-1.27-0.63-1.44-3.25-0.81-1.79 0.42-4.94 0.68-7 0.56-3.5-0.2-4.29 0.41-3.88 3.06 0.07 0.41-0.55 0.75-1.37 0.75-0.83 0-1.5 0.45-1.5 1s-0.79 1.02-1.75 1.03c-1.61 0.03-1.6 0.17 0.12 1.47 1.68 1.27 1.22 1.4-4.25 1.16-3.36-0.15-6.12 0.08-6.12 0.53s-0.92 0.81-2.06 0.81c-1.23 0-1.94 0.52-1.69 1.25 0.23 0.69 0.84 1.27 1.34 1.28 0.51 0.01 1.47 0.38 2.16 0.82 0.74 0.47 1.92 0.14 2.84-0.79 2.02-2.02 3.05-2.01 1.38 0-1.09 1.32-0.93 1.67 1.12 2.25 2.12 0.6 1.91 0.74-1.59 1.25-3.89 0.57-3.93 0.64-1.5 1.72 1.37 0.62 2.05 1.18 1.5 1.25-3.32 0.47-4.62 0.97-5.94 2.28-0.81 0.81-1.18 1.76-0.84 2.1s0.05 0.59-0.63 0.59-1.91 0.69-2.75 1.53c-1.19 1.2-1.26 1.86-0.34 2.97 0.65 0.79 0.89 2.34 0.53 3.47-0.77 2.44 0.27 2.67 1.91 0.44 1.06-1.46 1.29-1.46 2.5 0 1.11 1.34 1.05 1.59-0.38 1.59-0.92 0-1.38 0.47-1.03 1.03 1.14 1.84 1.34 8.45 0.28 9.1-0.68 0.42-0.6 1.41 0.22 3l1.22 2.37-2.38-2.47-2.37-2.5-0.31 2.25c-0.33 2.29-3.42 4.68-4.57 3.53-0.34-0.34-0.62 0.15-0.62 1.13 0 1.15-0.52 1.58-1.47 1.22-2.61-1-2.92 1.62-0.44 3.65l2.41 1.97-2.28-0.72c-2.07-0.64-2.24-0.44-1.66 1.88 0.47 1.86 0.22 2.71-0.94 3.16-0.88 0.33-1.62 1.32-1.62 2.15 0 1.25-0.28 1.29-1.53 0.25-1.78-1.47-1.66-1.59-3.35 3.35-1.3 3.8-0.75 6.32 0.82 3.78 0.67-1.09 0.97-1.09 1.62-0.03 0.47 0.76 0.32 1.45-0.37 1.68-1.57 0.52-1.52 3.93 0.06 4.57 0.9 0.36 0.92 0.53 0.06 0.59-0.65 0.04-1.47-0.39-1.81-0.94-0.94-1.52-2.5-1.19-2.5 0.53 0 0.85 0.67 1.81 1.5 2.13 2.32 0.89 1.77 2.23-0.66 1.59-1.53-0.4-1.94-0.21-1.4 0.66 0.41 0.67 0.78 2.71 0.78 4.53 0 2.03 0.85 4.24 2.22 5.72 1.22 1.32 2.05 2.92 1.84 3.56s0.52 2.09 1.66 3.22c1.13 1.13 2.06 2.79 2.06 3.69 0 1.28 0.29 1.39 1.41 0.47 0.96-0.8 1.62-0.85 2.06-0.13 0.35 0.58 1.06 1.03 1.56 1.03 1.08 0 0.03-3.2-1.34-4.12-1.26-0.84 0.05-2.88 1.84-2.88 0.81 0 1.19 0.62 0.88 1.44-1.07 2.79 6.19 7.87 7.71 5.41 0.59-0.95 1.25-0.8 2.82 0.62 1.13 1.03 2.4 1.53 2.81 1.13 0.41-0.41-0.12-1.38-1.19-2.16-1.06-0.78-1.43-1.44-0.81-1.44s1.44 0.5 1.81 1.1c0.37 0.59 1.55 0.87 2.63 0.59 1.8-0.47 1.83-0.35 0.5 1.66-1.2 1.8-2.2 2.11-5.94 1.84-2.52-0.18-4.82 0.15-5.19 0.75-0.37 0.59-2.01 1.06-3.62 1.06-1.62 0-2.94 0.47-2.94 1.03 0 0.58 1.2 0.8 2.75 0.5l2.75-0.53-2.63 1.06c-1.99 0.8-2.53 1.57-2.12 3.13 0.48 1.85 0.31 1.94-1.63 0.91-2.86-1.54-4.82-0.34-2.43 1.5 1.62 1.24 1.48 1.32-1.44 0.78-2.06-0.39-3.25-0.23-3.25 0.47 0 0.6-0.57 0.86-1.28 0.59-0.72-0.27-2.38 0.64-3.69 2.03l-2.37 2.53h3.09c1.71 0 3.8-0.67 4.62-1.5 1.98-1.97 4.76-1.97 4 0-0.31 0.83-1.44 1.5-2.5 1.5-1.58 0-1.74 0.34-0.9 1.91 1.09 2.03-0.16 2.36-2.78 0.72-2.51-1.57-2.64 0.54-0.16 2.53 2.44 1.96 2.44 1.98 0.13 0.84-3.75-1.84-4.82 0.33-1.47 3 2.47 1.98 2.53 2.17 0.56 1.56-1.67-0.51-2.25-0.28-2.25 0.88 0 0.86-0.68 1.56-1.5 1.56-1.01 0-1.5 1.01-1.5 3.06 0 2.36 0.4 3.01 1.75 2.79 2.03-0.34 4.25 0.83 4.25 2.25 0 0.6-0.66 0.65-1.75 0.09-1.96-1.01-4.25-0.5-4.25 0.94 0 0.51 1.24 1.43 2.75 2.03l2.75 1.09-2.75 0.97c-3.23 1.13-3.47 2.33-0.84 3.97 1.58 0.99 1.7 1.57 0.78 3.59-0.95 2.09-0.74 2.69 1.37 4.28 1.62 1.23 2.79 1.5 3.44 0.85s0.5-1.28-0.47-1.88c-0.8-0.49-1.15-1.23-0.75-1.62 1.04-1.04 1.94 0.15 2.25 3 0.15 1.36 0.58 2.98 0.94 3.56 0.98 1.59 3.53 1.25 3.53-0.47 0-1.49 1.17-1.91 4-1.5 0.87 0.13 0.47-0.58-0.94-1.72-1.63-1.32-2.01-2.16-1.22-2.65 0.64-0.4 1.16-0.3 1.16 0.25 0 0.64 1.13 0.66 3.22 0.06 3.31-0.95 6.78-0.41 6.78 1.03 0 0.45-1.38 1.07-3.09 1.41-2.23 0.44-2.95 1.05-2.54 2.12 0.34 0.88 0.03 1.5-0.75 1.5-0.73 0-2.4 2.03-3.71 4.5-1.44 2.71-3.1 4.5-4.16 4.5-0.96 0-1.75 0.48-1.75 1.06 0 0.59-0.45 0.78-1 0.44s-1-0.09-1 0.53 0.81 0.87 1.78 0.57c1.11-0.36 2.22 0.18 3 1.43 0.81 1.31 0.89 1.97 0.19 1.97-0.59 0-0.83 0.4-0.53 0.88 0.29 0.47-0.83 0.72-2.47 0.53-3.77-0.44-3.75 0.51 0.09 4.53 2.34 2.44 2.83 3.53 2 4.53-0.82 0.99-0.7 1.48 0.5 1.94 2.38 0.91 3.64 0.72 2.94-0.41-0.34-0.55 0.06-1 0.87-1 1.18 0 1.33 0.65 0.66 2.97-0.6 2.11-0.47 3.26 0.5 4.06 0.75 0.62 1.06 1.89 0.72 2.82-0.55 1.46-0.41 1.47 1.06 0.28 1.46-1.19 1.69-1.15 1.69 0.25 0 0.89 0.51 1.62 1.12 1.62 0.62 0 0.88-0.86 0.6-1.94-0.28-1.07 0.03-2.14 0.65-2.37 0.84-0.31 0.8-0.97-0.12-2.53-1.12-1.9-1.02-2.16 0.87-2.16 1.71 0 2.02-0.44 1.57-2.25-0.51-2.01-0.34-1.94 1.75 0.63 2.51 3.1 4.56 2.82 4.56-0.63 0-2.54 1.46-1.3 2.5 2.13 0.62 2.05 0.43 2.24-1.41 1.65-2.66-0.84-2.7 0.62-0.06 3 1.74 1.57 1.84 1.98 0.56 2.69-0.82 0.46-1.25 1.5-0.93 2.31 0.45 1.17-0.43 1.48-4.29 1.5-3.88 0.03-4.51 0.25-3.06 1.1 1.68 0.97 1.61 1.22-1 3.47-1.54 1.33-3.33 2.24-3.97 2-2-0.76-2.37 0.66-0.56 2.12 1.59 1.29 1.53 1.35-0.53 0.78-2.89-0.79-2.89 0.8 0 2.94l2.25 1.66-2.69-0.54c-3.16-0.64-4.4 0.71-2.28 2.47 1.61 1.34 2.04 4.97 0.59 4.97-0.48 0-1.15-0.97-1.46-2.19-0.32-1.21-0.9-1.88-1.29-1.5-0.79 0.8 2.69 7.69 3.88 7.69 0.42 0 1.75-0.97 2.97-2.19l2.22-2.21 0.59 2.46c0.66 2.8 3.65 3.44 3.19 0.69-0.17-1.02 0.25-1.65 1-1.5 2.2 0.45 2.72 2.1 1.06 3.31-0.97 0.71-1.27 1.64-0.78 2.44 0.63 1.01 1.13 0.89 2.25-0.59 1.33-1.75 1.4-1.65 0.78 1.34-0.4 1.9-0.29 3.25 0.28 3.25 1.27 0 2.37-4.38 1.6-6.4-0.34-0.87-0.18-1.6 0.37-1.6s1.28 0.68 1.59 1.5c0.8 2.06 2.63 1.89 2.69-0.25 0.05-1.47 0.31-1.39 1.63 0.5 1.5 2.16 4.08 3.31 2.81 1.25-0.34-0.55 0.28-1 1.37-1 2.33 0 5.42-2.73 4.6-4.06-0.31-0.51-0.09-0.94 0.53-0.94 0.67 0 0.88 0.81 0.5 2-0.81 2.54-0.04 2.54 2.5 0 2.61-2.61 2.53-3.95-0.25-4.09-2.04-0.11-2.06-0.18-0.25-0.63 1.1-0.27 2.49-0.88 3.09-1.37 0.66-0.53 2.41-0.45 4.32 0.22 1.76 0.61 3.52 0.79 3.9 0.37 0.39-0.41 0.13-0.97-0.56-1.22-2.76-0.98-1.12-2.38 2-1.72 4.31 0.93 4.43 1.13 1.91 3.32-1.19 1.03-2.16 2.34-2.16 2.9 0 1.53 2.82 2.3 3.62 1 0.44-0.7 1.04-0.27 1.57 1.16 0.53 1.44 1.37 2.08 2.31 1.72 0.86-0.33 1.9 0.22 2.5 1.34 1.13 2.12 4 1.69 4-0.59 0-0.77 0.42-1.41 0.94-1.41 0.51 0 0.85 1.21 0.75 2.66-0.11 1.5 0.42 2.84 1.22 3.12 1 0.36 1.26-0.09 0.87-1.56-0.4-1.54-0.15-1.9 0.97-1.47 1.49 0.58 1.39-0.42-0.56-5.75-0.48-1.3-0.33-1.29 1.18-0.06 1.55 1.25 1.81 1.17 2.32-0.75 0.31-1.19 1.12-2.19 1.81-2.19s1.78-0.62 2.44-1.4c0.95-1.15 0.77-1.67-0.91-2.57-1.15-0.61-1.79-1.58-1.44-2.15 0.44-0.71 0.98-0.68 1.72 0.06 1.53 1.53 2.69 1.33 2.69-0.44 0-0.82 0.5-1.5 1.09-1.5 0.68 0 0.84-1.2 0.44-3.25l-0.62-3.25 3.03 3.5c1.67 1.93 3.52 5.3 4.09 7.5s2.53 7.6 4.38 12c5.98 14.28 6.96 34.18 2.5 51.25-0.7 2.68-1.3 5.46-1.63 7.47h24.94c-0.24-1.16-0.48-2.34-0.78-3.72-2.08-9.51-1.06-51.63 1.53-62.62 1.63-6.96 1.91-7.42 6.03-9.6 3.27-1.72 4.63-2 5.66-1.15 0.99 0.82 1.34 0.83 1.34 0 0-1.44 3.68-1.47 4.56-0.03 0.49 0.78 0.97 0.78 1.75 0 0.6-0.6 1.55-1.1 2.1-1.1 0.54 0 0.14 0.63-0.88 1.38s-2.68 1.14-3.69 0.87c-1.24-0.32-1.84 0.09-1.84 1.25 0 0.94 0.95 1.95 2.09 2.25 1.43 0.37 1.71 0.77 0.88 1.28-0.67 0.42-0.9 1.29-0.5 1.94 0.51 0.83 1.15 0.59 2.15-0.84 1.79-2.55 4.38-1.69 4.38 1.43 0 1.29 0.45 2.6 1 2.94s1 1.3 1 2.13c0 0.82-0.44 1.22-1 0.87-0.56-0.34-0.79-1.02-0.5-1.5 0.29-0.47 0.09-1.12-0.47-1.47-0.56-0.34-1.01 0.16-1 1.16 0.04 4.64 5.6 5.91 6.56 1.5 1.18-5.38 1.36-5.64 2.78-3.69 1.33 1.82 3.63 1.36 3.63-0.72 0-0.61-0.74-1.92-1.66-2.93-1.78-1.98-1.02-3.94 0.82-2.1 1.57 1.58 3.84 0.42 3.84-1.97 0-1.84 0.21-1.8 2.09 0.6 2.31 2.93 4.53 2.68 2.91-0.35-0.55-1.03-0.96-2.27-0.94-2.72 0.02-0.44 0.71 0.43 1.53 1.94s2.02 2.75 2.66 2.75c0.87 0 0.87-0.28 0.03-1.12s-0.43-2.17 1.56-5.22c5.23-8.07 7.43-9.55 8.43-5.66 0.7 2.46 2.7 2.65 2.8 0.25 0-1.47 0.3-1.35 2 0.63 1 1.29 1.7 2.75 1.4 3.25-0.8 1.32 0.9 1.08 2.3-0.32 1-0.93 1.2-0.82 1.2 0.5 0 0.94 0.5 1.69 1 1.69 0.6 0 1-0.9 1-2s0.5-2 1.2-2 0.7-0.46-0.2-1.5c-1-1.2-0.9-1.5 0.1-1.5 1.1 0 1.1-0.25 0.1-1.19-1.7-1.77-1.4-2.46 1.1-2.37 1.3 0.05 2.1-0.47 2-1.19-0.2-0.74 0.8-1.25 2.3-1.25 3.4 0 3-3.42-0.4-3.59-1.2-0.07-2.8-0.66-3.5-1.31-0.9-0.93-0.8-1.05 0.7-0.5 1.1 0.42 2.2 0.2 2.6-0.57 0.6-0.95 1.1-0.74 1.9 0.82 0.7 1.22 2.6 2.36 4.7 2.75 1.9 0.36 3.7 1.04 4 1.53 0.9 1.4 2.4 1.02 2.4-0.6 0-0.8-1.2-2.11-2.7-2.93-1.9-1.01-2.2-1.51-1.1-1.54 0.9-0.02 2 0.43 2.4 1 0.3 0.58 1.1 0.89 1.7 0.69 1.5-0.51 1.8-4.03 0.4-5.03-0.9-0.62-0.8-1 0-1.34 1.4-0.61-2.2-8.36-4-8.41-0.7-0.02-0.5-0.56 0.6-1.34 0.9-0.73 1.7-2.26 1.7-3.41 0-1.14 0.4-2.31 0.9-2.59 1.3-0.81 0.7-4.68-0.9-5.69-2.3-1.45-3.3-1.07-1.9 0.69 1.2 1.4 1.1 1.58-0.6 1.25-1.1-0.21-2.8-2.07-3.7-4.13-1.7-3.52-3.8-5.02-3.8-2.69 0 1.75-2-0.07-3-2.71-0.5-1.36-1.4-2.17-2-1.82-0.7 0.45-0.7 1.1 0.1 2.07 2.3 2.75-0.4 1.36-5.4-2.82-3.1-2.66-5.2-3.77-5.4-3-0.2 0.68-1.3 1.22-2.3 1.22-1.1 0-2 0.45-2 1 0 1.93-3.5 0.97-6.4-1.75-1.67-1.51-3.48-2.8-4.04-2.87-0.56-0.08-1.59-0.19-2.28-0.25-2.59-0.24-1.1-1.71 1.97-1.94 1.76-0.13 3.35-0.42 3.65-0.66 0.2-0.23 1.2 0.57 2.2 1.78 1.9 2.28 2.6 1.33 1-1.28-0.6-0.93-0.5-1.91 0.1-2.75 1.6-1.89 0.1-2.89-2.2-1.47-2.61 1.63-2.47 0.86 0.4-2.25 2.8-3.05 3.6-3.2 3.6-0.62 0 1.07 0.5 2.22 1 2.56 0.6 0.35 1-0.51 1-2 0-1.5 0.5-2.36 1-2 0.6 0.34 1.3-0.05 1.6-0.87 0.8-1.94-1.8-7.2-3.4-6.88-0.6 0.14-1.2-0.45-1.2-1.31 0-1.3 0.5-1.21 3 0.56 1.7 1.18 3 2.58 3 3.13 0 0.54 0.5 0.71 1.1 0.34s0.8-1.83 0.5-3.31c-0.5-1.98-0.4-2.28 0.4-1.16 0.6 0.83 1 2.4 1.1 3.5 0 1.66 0.2 1.57 1.2-0.65 1.1-2.28 1.4-2.47 2.5-1.25 1.1 1.17 1 1.4-0.2 1.4-0.9 0-1.6 0.45-1.6 1s0.5 1 1.1 1 0.7 1.09 0.3 2.66c-0.5 1.86-0.3 2.43 0.5 1.94 0.7-0.43 1.1-0.01 1.2 1.09 0 1.69 0.1 1.69 1.5-0.13 1.4-1.92 1.4-1.92 1.5 0 0 1.93 0 1.93 1.5 0 0.8-1.06 1.4-2.76 1.4-3.78 0-1.01 0.7-2.09 1.5-2.4 0.9-0.32 1.5-1.19 1.5-1.94 0-0.8 0.6-1.12 1.5-0.78 1.8 0.67 1.9-0.48 0.5-4.22-0.9-2.38-0.8-2.55 0.5-1.44 0.8 0.7 1.5 2.09 1.5 3.13 0 1.03 0.5 1.87 1 1.87 1.3 0 1.3-2.7 0-3.5-1.5-0.96-1.1-2.5 0.5-1.87 1.1 0.43 1.4-0.27 1.2-3.1-0.1-2-0.7-3.93-1.2-4.31s-1.6-1.49-2.3-2.47c-1.3-1.55-1.2-1.71 0.2-1.15 1.1 0.41 1.6 0.12 1.6-0.85 0-0.82-0.9-1.76-2.1-2.06-1.1-0.3-1.8-1.01-1.4-1.59 0.4-0.67-0.6-1.12-2.7-1.19-1.8-0.07-2.5-0.34-1.5-0.6 0.9-0.25 1.7-1.12 1.7-1.93 0-0.82 0.4-1.22 0.9-0.91s1.8 0.25 2.7-0.12c1.7-0.64 1.7-0.74-0.1-1.44-3.1-1.2-4.5-1.02-4.5 0.59 0 0.83-0.3 1.47-0.7 1.41-0.4-0.07-1-0.05-1.3 0.06-2 0.81-5 0.5-5-0.53 0-0.69-0.3-1.46-0.7-1.69s-0.1-0.21 0.7 0.03c5.4 1.61 5.4 1.65 4.9-0.9-0.3-1.35 0-2.9 0.6-3.44 1.5-1.44 4.5-0.58 3.9 1.12-0.3 0.8-0.1 1.44 0.5 1.44s1.1-0.56 1.2-1.25c0-0.69 0.5-0.47 1 0.5 1.2 2.01 3.4 2.4 2.6 0.47-0.7-2.05 4.2-1.31 5.8 0.88 1.4 1.85 1.5 1.83 1.5 0.03 0-1.55 0.3-1.66 1.5-0.63 1.3 1.03 1.5 0.95 1.5-0.53 0-0.99-0.7-2.59-1.6-3.56-1.7-1.92-1.1-3.91 1.2-3.91 0.8 0 1.4-0.45 1.4-1s-0.3-1-0.7-1-0.9-1.43-1-3.22c-0.1-1.78-0.7-3.4-1.2-3.59-2-0.64-1.1-1.99 0.9-1.47 1.1 0.29 2 0.04 2-0.56 0-0.61-1-1.39-2.4-1.72-1.4-0.36-2.6-1.56-3-3-0.3-1.33-1-2.44-1.5-2.44-0.6 0-0.7-0.69-0.4-1.56 0.5-1.33-0.1-1.55-3.8-1.28-3.3 0.24-4.4-0.03-4.4-1.16 0-0.81 0.6-1.36 1.3-1.22 0.8 0.15 2.2-0.23 3.3-0.81 1.5-0.82 2.1-0.7 2.6 0.5 0.9 2.56 3.1 1.73 3.8-1.47 0.5-2.06 1.3-3 2.6-3 2.1 0 2.6-1.47 0.9-2.5-1.5-0.95-1.2-2.5 0.6-2.5 0.8 0 1.3-0.42 0.9-0.97-0.3-0.56 0.1-0.74 1-0.4 0.9 0.32 1.5 0.13 1.5-0.44s-0.9-1.34-2-1.69-2-1.26-2-2.03-0.8-1.85-1.8-2.41c-2.4-1.24-3.3-5.65-1.6-7.09 1-0.82 1.2-0.59 0.7 1-0.3 1.49 0 2.03 1.2 2.03 1.1 0 1.5-0.53 1.2-1.44-0.3-0.78-0.2-1.57 0.3-1.75 1.2-0.41-1.4-3.86-3.1-4.21-0.8-0.15-2-0.54-2.9-0.85-0.8-0.31-2.7-0.85-4.2-1.19-1.5-0.33-2.8-1.13-2.8-1.81 0-0.67-1.8-2.34-4-3.69-2.2-1.34-4-2.83-4-3.28 0-1.11 5.3 0.26 6.2 1.6 1.3 1.92 2.3-0.41 1-2.38-0.9-1.56-0.9-1.81 0.2-1.37 2.3 0.87 2.9-1.42 0.7-2.6-1.4-0.73-2.1-0.76-2.1-0.06 0 1.9-1.5 1.06-2.7-1.53-0.9-1.98-0.9-2.35 0-1.59 1.1 0.9 4.2 1.55 6 1.28 1.9-0.28-1.8-4.45-6.3-7.25-5.1-3.13-6.3-4.43-3.2-3.47 0.9 0.3 2.4 0.13 3.2-0.41 1.4-0.87 1.4-1.09 0-1.97-0.8-0.54-2-0.99-2.6-1-0.7-0.01-1-0.88-0.7-2.03 0.6-2.23-0.6-2.61-2.5-0.78-1.2 1.27-1.6 0.27-1.2-3.47 0.1-1.01-0.8-2.15-2.2-2.69-1.2-0.51-1.9-0.96-1.4-1 2-0.14-1.8-3.06-3.9-3.06-1.3 0-2.6-0.45-3-1-0.3-0.55-1.7-0.71-3-0.37-1.6 0.4-2.5 0.17-2.5-0.63 0-0.82-1-1.05-3.2-0.69-1.81 0.3-4.17 0.16-5.27-0.31s-1.44-0.87-0.75-0.9c0.69-0.04 1.25-0.58 1.25-1.16 0-0.98-5.17-0.71-11.59 0.59-1.15 0.24-2.95-0.21-4-1.03-1.49-1.15-1.53-1.36-0.22-0.9 1.07 0.37 2.07-0.17 2.78-1.5 0.89-1.671 0.81-2.098-0.38-2.098-0.81 0-1.74 0.467-2.09 1.028-0.35 0.57-1.17 0.96-1.81 0.85-1.52-0.26-6.69 2.23-6.69 3.22 0 0.41 0.56 0.98 1.25 1.28s0.01 0.31-1.5 0c-2.19-0.46-3.34 0.05-5.66 2.53-3.28 3.51-4.09 3.81-4.09 1.5 0-1.25-0.6-1.47-2.72-0.94-2.69 0.68-2.68 0.66-0.84-1.37 1.82-2.02 1.81-2.06-0.53-2.94-1.32-0.5-2.75-0.71-3.16-0.47s-0.75-0.09-0.75-0.75-0.79-1.8-1.75-2.53c-1.65-1.257-1.64-1.347 0.12-1.377 1.46-0.024 1.62-0.334 0.75-1.375-1.32-1.591-0.47-2.656 2.07-2.656 2.04 0 2.49-1.597 0.62-2.219-0.66-0.219-2.79 0.167-4.75 0.844-2.85 0.986-3.86 0.963-5.06-0.062-1.21-1.034-3.3-1.485-5.41-1.375zm-92.25 44.22c0.43-0.05 0.9 0.17 1.16 0.59 0.34 0.56-0.08 1-0.94 1-1.75 0-2.01-0.58-0.62-1.44 0.12-0.07 0.26-0.13 0.4-0.15zm-7.93 3.94c-0.12 0.02-0.27 0.07-0.41 0.15-0.55 0.34-1 1.08-1 1.63s0.45 0.71 1 0.37 1-1.04 1-1.59c0-0.41-0.24-0.63-0.59-0.56zm199.16 33c0.8 0 1.4 0.61 1.4 1.34 0 1.68-0.4 1.68-1.8 0-0.9-1.01-0.8-1.34 0.4-1.34zm-3.9 4.06c1.2-0.14 3.6 0.63 4.8 1.72 0.6 0.56 0.6 0.83 0 0.75-3.8-0.55-5.5-1.14-5.5-2 0-0.28 0.3-0.42 0.7-0.47zm-9.5 5.81c0.2-0.07 0.6 0.11 1 0.56 0.7 0.65 1 1.44 0.7 1.72-0.7 0.67-1.9-0.51-1.9-1.84 0-0.24 0.1-0.4 0.2-0.44zm-63.17 3.78c0.55 0 1 0.2 1 0.44s-0.45 0.72-1 1.06-1 0.15-1-0.44c0-0.58 0.45-1.06 1-1.06zm-29.91 2.56c0.62-0.02 1.39 0.32 1.94 0.97 0.68 0.82 0.97 1.47 0.66 1.47s-0.85-0.44-1.19-1c-0.35-0.56-1.05-0.75-1.56-0.44-0.52 0.32-0.94 0.34-0.94 0.07 0-0.68 0.48-1.04 1.09-1.07zm104.98 8.57c0.4-0.02 0.8 0.07 1.1 0.22 0.8 0.32 0.6 0.54-0.6 0.59-1 0.04-1.6-0.2-1.3-0.53 0.2-0.17 0.5-0.27 0.8-0.28zm-0.2 3.93c0.3-0.08 1 0.19 2 0.85 0.8 0.48 1.2 1.37 1 2-0.2 0.69-1.1 0.35-2.1-0.88-1-1.18-1.3-1.86-0.9-1.97zm-215.21 1.1c-0.13 0.03-0.23 0.1-0.32 0.19-0.29 0.29-0.23 1 0.13 1.59 0.81 1.32 2.53 1.4 2.53 0.12 0-1.03-1.49-2.12-2.34-1.9zm30.53 1.84c0.52 0 0.29 0.68-0.53 1.5-1.95 1.95-3.28 1.95-1.66 0 0.68-0.82 1.66-1.5 2.19-1.5zm-9 1c0.78 0 2.19 0.56 3.09 1.25 1.31 1 1.4 1.55 0.44 2.75-1.64 2.04-3.42 2.24-4.1 0.47-0.31-0.81-0.06-1.47 0.54-1.47 0.72 0 0.66-0.51-0.16-1.5-1.01-1.21-0.97-1.5 0.19-1.5zm-12.78 1.35c0.27-0.08 0.65 0.38 0.93 1.12 0.68 1.76 0.11 2.07-0.87 0.47-0.36-0.59-0.45-1.27-0.19-1.53 0.03-0.03 0.09-0.05 0.13-0.06zm10.18 0.71c0.25 0 0.41 0.48 0.41 1.44 0 0.83-0.44 1.5-0.97 1.5s-0.69-0.67-0.37-1.5c0.36-0.96 0.68-1.44 0.93-1.44zm192.88 0c0.3 0 0.6 0.3 1 0.94 0.4 0.55 0.2 1-0.4 1s-1.1-0.45-1.1-1c0-0.64 0.2-0.94 0.5-0.94zm5.7 2.04c0.9-0.04 2 0.35 2.3 0.9 0.7 1.15 0.7 1.15-2 0-1.6-0.7-1.7-0.85-0.3-0.9zm-132.7 1.96c0.27 0 0.63 0.3 1.03 0.94 0.34 0.55 0.14 1-0.44 1s-1.06-0.45-1.06-1c0-0.64 0.19-0.94 0.47-0.94zm13.15 2.13c0.71-0.1 0.36 2.78-0.78 5.28-0.79 1.74-1.73 2.4-2.87 2.03-2.32-0.73-4.97 0.42-4.97 2.16 0 1.15-0.4 1.21-2.13 0.28-1.74-0.93-2.32-0.84-3.06 0.47-0.49 0.89-1.51 1.59-2.25 1.59-1.78 0-2.9-3.04-1.59-4.34 0.71-0.71 1.03-0.51 1.03 0.65 0 2.78 2.03 1.93 3.16-1.31 0.57-1.65 1.48-2.71 2.03-2.37 0.54 0.33 2.97 0.72 5.4 0.87 3.19 0.2 4.44-0.09 4.53-1.09 0.25-2.74 0.39-3.23 1.13-3.97 0.14-0.15 0.27-0.24 0.37-0.25zm115.65 0.06c-0.2-0.02-0.3 0.34-0.3 1.06 0 1.85 3.6 4.1 5.1 3.19 0.5-0.33 0.9 0.11 0.9 1s0.5 1.34 1 1c0.6-0.34 1-1.52 1-2.62 0-1.58-0.4-1.86-2-1.35-1.4 0.42-2.8 0.02-4-1.09-0.9-0.78-1.4-1.17-1.7-1.19zm-119.93 0.16c0.43-0.05 0.9 0.17 1.16 0.59 0.34 0.56-0.08 1-0.94 1-1.75 0-2.01-0.58-0.62-1.44 0.12-0.07 0.26-0.13 0.4-0.15zm-82.78 0.9c-0.77 0-1.36 1.05-0.9 2.22 0.31 0.81 0.97 1.47 1.46 1.47 1.03 0 1.21-2.33 0.25-3.28-0.26-0.27-0.55-0.41-0.81-0.41zm58.63 1.44c0.16-0.15 0.51 0.5 0.87 1.72 0.49 1.62 0.72 3.09 0.53 3.28-0.53 0.54-1.59-2.7-1.5-4.56 0.01-0.23 0.04-0.39 0.1-0.44zm8.28 1.31c0.27 0 0.63 0.3 1.03 0.94 0.34 0.55 0.14 1-0.44 1s-1.06-0.45-1.06-1c0-0.64 0.19-0.94 0.47-0.94zm26.09 3.29c1.94 0 1.86 1.3-0.12 2.06-2.23 0.85-2.42 0.79-1.85-0.72 0.28-0.73 1.17-1.34 1.97-1.34zm-97.56 3.65c-0.55 0-1 0.45-1 1s0.45 1 1 1 1-0.45 1-1-0.45-1-1-1zm199.07 16.13c0.4-0.02 0.8 0.07 1.1 0.22 0.8 0.32 0.6 0.54-0.6 0.59-1 0.04-1.6-0.2-1.3-0.53 0.2-0.17 0.5-0.27 0.8-0.28zm-3.6 1.34c0.1 0.02 0.1 0.11 0.2 0.28 0.3 0.69 0.3 1.81 0 2.5s-0.5 0.13-0.5-1.25c0-1.03 0.1-1.6 0.3-1.53zm-2.5 4.56c0.5 0 1.1 0.33 1.5 0.97 0.4 0.55-0.1 1-0.9 1-0.9 0-1.6-0.45-1.6-1 0-0.64 0.5-0.97 1-0.97zm-20.2 0.07c1 0.04 1.2 0.28 0.5 0.59-0.7 0.28-1 0.9-0.7 1.41 0.6 1.06 0.1 1.22-0.9 0.25-1.21-1.23-0.69-2.33 1.1-2.25zm26.2 0.9c-0.5 0-1 0.71-1 1.56 0 0.86 0.5 1.28 1 0.94 1.3-0.8 1.3-2.5 0-2.5zm-53.91 10.47c0.64-0.08 0.24 0.8-1.22 2.69-3.72 4.82-6.87 4.79-6.81-0.06 0.03-2.24 0.18-2.36 1.06-0.85 1.23 2.11 3.78 2.31 4.53 0.35 0.3-0.79 1.23-1.7 2.1-2.04 0.13-0.05 0.25-0.08 0.34-0.09zm-17.06 1.53c0.55 0 1 0.2 1 0.44s-0.45 0.72-1 1.06-1 0.15-1-0.44c0-0.58 0.45-1.06 1-1.06zm3.47 0.5c0.06 0 0.12 0.08 0.19 0.25 0.27 0.68 0.28 2.03 0.03 3-0.26 0.98-0.48 0.4-0.5-1.25-0.02-1.24 0.11-1.98 0.28-2zm-126.28 0.5c0.46 0 0.81 0.68 0.81 1.5 0 0.83-0.35 1.5-0.81 1.5s-0.85-0.67-0.85-1.5c0-0.82 0.39-1.5 0.85-1.5zm111.22 1.35c0.35-0.06 0.59 0.15 0.59 0.59 0 0.58-0.45 1.06-1 1.06-1.28 0-1.28-0.71 0-1.5 0.14-0.08 0.29-0.13 0.41-0.15zm-92.91 1c0.78 0 1.19 0.38 0.91 0.84-0.66 1.05-1.13 1.05-1.79 0-0.28-0.46 0.1-0.84 0.88-0.84zm100.75 0.53c2.18-0.02 2.75 0.32 2.75 1.22 0 0.68-1.11 0.82-3 0.4-1.72-0.38-3-0.24-3 0.31 0 0.54-1.35 1.17-3 1.41s-3 0.09-3-0.34c0-1.23 3.19-2.65 6.5-2.88 1.12-0.07 2.02-0.12 2.75-0.12zm-115.44 2.15c1.29-0.01 2.03 0.41 1.69 0.97-0.74 1.2-0.64 1.2-2.5 0-1.21-0.78-1.05-0.95 0.81-0.97zm4.44 0c0.96-0.01 1.75 0.42 1.75 0.97 0 1.22-0.11 1.22-2 0-1.28-0.83-1.25-0.95 0.25-0.97zm6.34 0.63c0.46-0.04 1.05 0.4 1.91 1.34 1.39 1.53 1.47 2.01 0.41 2-2.31-0.02-3.86-1.44-3.04-2.78 0.22-0.35 0.45-0.54 0.72-0.56zm75.41 1.4c0.82-0.01 2.16 0.4 2.97 0.91 2.44 1.55 0.71 1.99-1.97 0.5-1.45-0.8-1.87-1.39-1-1.41zm14.12 0.41c1.59 0.02 2.88 0.37 2.88 0.78 0 0.42-0.63 0.75-1.41 0.75s-1.56 0.48-1.75 1.03c-0.18 0.56-0.85 0.18-1.47-0.81-0.98-1.58-0.77-1.78 1.75-1.75zm-23.12 0.53c0.55 0 1 0.2 1 0.44s-0.45 0.72-1 1.06-1 0.15-1-0.44c0-0.58 0.45-1.06 1-1.06zm19.19 1c0.64 0 0.86 0.3 0.5 0.66-0.37 0.36-0.18 1.26 0.43 2 0.7 0.84 0.77 1.34 0.13 1.34-0.56 0-1.29-0.69-1.63-1.56-0.83-2.18-0.77-2.44 0.57-2.44zm-12.75 0.35c0.32-0.03 0.56 0.23 0.56 0.71 0 0.67 0.71 0.9 1.66 0.54 1.29-0.5 1.39-0.33 0.5 0.75-0.63 0.75-0.84 1.63-0.47 2 0.36 0.36-0.09 0.65-1 0.65-0.92 0-1.71-0.11-1.75-0.25-0.64-2.06-0.58-3.83 0.15-4.28 0.13-0.08 0.24-0.12 0.35-0.12zm109.93 1.12c-0.4 0.09-0.4 0.59 0.1 1.47 0.4 0.59 1.4 1.05 2.3 1.03 1.5-0.03 1.5-0.19-0.2-1.47-1-0.78-1.8-1.12-2.2-1.03zm4 22.94c0.4-0.07 0.9 0.14 1.1 0.53 0.3 0.52 0.1 1.21-0.4 1.53s-1.2 0.15-1.5-0.37c-0.3-0.53-0.2-1.21 0.3-1.54 0.2-0.08 0.3-0.13 0.5-0.15zm5.2 0.37c-0.7 0.13-0.7 1.3 0.5 2.75 0.6 0.8 1.6 1.2 2.1 0.88 0.6-0.33 0.2-1.46-0.8-2.56-0.8-0.84-1.4-1.14-1.8-1.07zm-208.38 0.44c0.2-0.07 0.55 0.11 1 0.56 0.65 0.65 0.94 1.44 0.65 1.72-0.66 0.67-1.84-0.51-1.84-1.84 0-0.24 0.07-0.4 0.19-0.44zm-6 2c-0.12 0.04-0.19 0.2-0.19 0.44 0 0.57 0.32 1.32 0.69 1.69 0.36 0.36 0.87 0.44 1.15 0.15 0.29-0.28 0-1.07-0.65-1.72-0.45-0.45-0.8-0.63-1-0.56zm28.09 1.91c0.08-0.09 0.35 0.13 0.84 0.62 0.69 0.68 1 1.48 0.69 1.78-0.31 0.31-0.87-0.23-1.25-1.22-0.27-0.71-0.36-1.1-0.28-1.18zm180.69 0.87c0.5 0 1 0.45 1 1 0 1.28-0.7 1.28-1.5 0-0.3-0.55-0.1-1 0.5-1zm-98.56 4.1c0.16-0.06 0.52 0.06 1.09 0.28 0.93 0.35 2.77 0.91 4.09 1.25 2.62 0.65 3.35 3.37 0.91 3.37-0.83 0-1.5 0.66-1.5 1.47 0 0.93-0.57 1.26-1.56 0.88-1.26-0.49-1.51-0.01-1.25 2.28 0.19 1.71-0.3 3.36-1.19 4.06-1.22 0.96-1.25 1.42-0.22 2.47 1.02 1.03 1.69 1.07 3.25 0.09 1.94-1.21 1.92-1.21 0.06 3-1.03 2.34-2.72 7.11-3.75 10.6-1.83 6.25-1.88 6.33-3.68 4.34-2.75-3.04-6.94-17.38-5.38-18.38 1.45-0.92 2.58-1.1 5.06-0.84 1.55 0.16 1.73-0.33 1.25-3.31-0.52-3.29-0.35-3.61 2.91-4.78 1.91-0.69 3.16-1.51 2.75-1.82-0.41-0.3-1.35-1.62-2.09-2.93-0.76-1.34-1.03-1.93-0.75-2.03zm-76.54 1.9c0.55 0 1.29 0.45 1.63 1s0.17 1-0.38 1-1.28-0.45-1.62-1-0.18-1 0.37-1zm172.9 3.56c-0.9 0.22-1.1 1.74-0.1 2.79 1.1 1.12 2.3 0.75 2.3-0.72 0-0.77-0.6-1.66-1.5-1.97-0.3-0.11-0.5-0.15-0.7-0.1zm-14.5 4.41c0.3-0.03 0.7 0.23 1.1 0.84 0.3 0.44 0.2 1.39-0.3 2.1-0.6 0.94-0.9 0.71-1.3-0.81-0.3-1.26 0-2.08 0.5-2.13zm-61.02 4.19c0.43-0.03 0.75 0.16 0.75 0.65 0 0.54-0.69 1.26-1.56 1.6-0.98 0.37-1.43 0.14-1.19-0.6 0.31-0.93 1.29-1.6 2-1.65zm34.69 1.84c0.58 0 1.06 0.45 1.06 1 0 1.28-0.71 1.28-1.5 0-0.34-0.55-0.15-1 0.44-1zm-62.25 0.25c-2.21 0.12-2.36 1.77 0.31 2.47 1.1 0.29 2 0.92 2 1.41 0 0.48 0.47 0.87 1.06 0.87s0.93-0.96 0.75-2.15c-0.22-1.51-1.15-2.28-3.06-2.54-0.4-0.05-0.75-0.07-1.06-0.06zm-28.63 7.85c0.16 0 0.81 0.5 2.16 1.46 1.49 1.08 2.73 2.28 2.75 2.69 0.06 1.42-1.75 0.21-3.97-2.69-0.74-0.96-1.09-1.46-0.94-1.46zm71.13 2.9c-0.53 0-1.21 0.93-1.5 2.06-0.35 1.31-0.09 1.94 0.65 1.69 1.44-0.48 2.17-3.75 0.85-3.75zm-78.53 3.25c0.24-0.09 0.33 0.36 0.34 1.5 0.01 1.24-0.45 2.25-1 2.25-1.25 0-1.25-1.06 0-3 0.29-0.45 0.51-0.69 0.66-0.75z" transform="translate(-819.63 -92.663)" fill="#00b800" class="color000 svgShape"></path></svg></g></svg>