<svg xmlns="http://www.w3.org/2000/svg" viewBox="0 0 288 288" width="288" height="288">
	<style>
		tspan { white-space:pre }
		.shp0 { fill: #00b800 } 
		.txt1 { font-size: 60px;fill: #000000;font-weight: 400;font-family: "CoolveticaRg-Regular", "Coolvetica" } 
	</style>
	<g id="SvgjsG1023">
		<g id="Layer">
			<path id="Layer" fill-rule="evenodd" class="shp0" d="M138.81 264.46C137.5 257.44 137.06 257.05 132.67 257.87C130.04 258.35 125 258.7 121.71 258.64C118.42 258.6 115.79 258.91 115.79 259.32C115.79 259.74 112.94 259.98 109.21 259.85C104.6 259.67 102.41 260.21 101.53 261.79C100 264.3 93.86 264.74 93.86 262.34C93.86 260.66 90.35 260.53 85.53 262.04C83.77 262.65 83.33 262.39 84.21 261.24C85.09 259.97 84.21 259.67 80.26 260.05C77.41 260.33 76.31 260.25 77.85 259.87C81.8 258.93 81.36 257.02 77.63 257.78C75.88 258.12 73.03 257.21 71.05 255.77L67.54 253.15L67.54 255.69C67.54 257.09 66.45 258.23 65.35 258.23C64.03 258.23 63.16 257.8 63.16 257.25C63.16 256.71 60.74 256.52 57.67 256.81C54.39 257.13 52.19 256.83 52.19 256.08C52.19 255.38 53.95 254.8 56.36 254.8C58.55 254.8 61.62 254.07 62.94 253.16C64.47 252.26 68.42 251.18 71.93 250.78C82.24 249.6 81.36 248.36 69.96 248.32C64.25 248.3 56.8 247.94 53.51 247.51C50.22 247.07 45.61 247.33 42.98 248.07C39.25 249.08 37.94 249.08 37.28 248.09C36.84 247.37 35.53 247.06 34.43 247.42C31.58 248.34 16.89 246.71 18.2 245.6C18.86 245.08 22.59 244.92 26.53 245.25C32.67 245.78 33.77 245.47 35.96 242.54C37.94 239.64 37.72 239.22 33.99 239.07C30.92 238.95 30.48 239.26 32.24 240.43C34.21 241.58 33.77 242.13 30.92 242.71C28.73 243.14 26.75 242.94 26.32 242.28C25.88 241.62 24.34 241.07 22.81 241.07C21.49 241.07 19.3 239.91 18.2 238.49C16.89 236.88 14.03 235.87 10.53 235.79C-1.32 235.53 -1.54 235.4 3.51 233.52C7.89 231.91 8.11 231.53 5.26 230.38C3.29 229.64 1.1 227.38 0.44 225.33C-1.32 220.72 3.07 220.31 10.31 224.38C17.54 228.42 26.53 230.13 32.24 228.53C37.06 227.21 38.38 225.04 34.65 225.04C33.33 225.04 32.67 224.4 32.89 223.61C33.33 222.84 32.24 222.32 30.7 222.47C29.17 222.63 28.07 222.3 28.07 221.73C28.07 221.15 26.1 220.96 23.46 221.29C21.05 221.63 19.3 221.45 19.74 220.9C19.96 220.35 18.86 218.73 17.54 217.3C13.82 213.92 15.57 212.72 25 211.79C30.04 211.3 32.02 210.64 30.7 209.93C29.17 209.2 26.97 209.26 24.12 210.06C18.42 211.62 14.91 211.67 14.91 210.17C14.91 209.54 16.89 209.02 19.08 209.02C26.53 209.02 26.53 206.77 19.08 205.15L12.06 203.62L24.78 201.97L18.64 199.26C15.35 197.77 12.72 196.27 12.72 195.95C12.72 195.3 25 196.24 30.26 197.29C32.02 197.66 34.21 198 35.09 198.06C35.75 198.1 37.28 198.54 38.16 199.01C41.45 200.79 60.96 199.45 60.96 197.45C60.96 196.89 58.77 196.43 55.92 196.42C53.29 196.41 48.68 195.15 46.05 193.62C42.98 191.89 39.69 191.1 37.5 191.55C34.65 192.11 34.21 191.79 35.53 190.06C36.62 188.35 36.4 188.16 34.43 189.21C31.36 190.83 27.19 189.18 25 185.34C23.9 183.72 22.15 183.11 19.52 183.49C16.45 183.89 15.13 183.26 14.47 181.09C13.38 178.14 15.57 177.07 18.2 179.27C20.18 181.03 28.07 180.63 29.39 178.69C30.04 177.76 32.02 176.98 33.77 176.98C35.53 176.98 36.84 176.46 36.84 175.83C36.84 175.2 35.31 174.69 33.55 174.69C31.8 174.69 30.26 174.17 30.26 173.54C30.26 172.91 28.73 172.4 26.75 172.4C23.9 172.4 23.68 172.04 25.66 170.87C28.73 168.91 26.1 167.44 22.37 169.07C20.18 170 19.52 169.74 19.96 167.99C19.96 166.72 21.27 165.96 22.37 166.28C23.68 166.59 23.03 166.12 20.83 165.21C18.86 164.31 17.11 163.24 17.11 162.83C17.11 161.28 22.15 162.24 31.36 165.53C36.62 167.42 41.45 168.97 42.1 168.97C45.39 168.97 42.76 165.6 36.84 162.43C32.24 159.97 30.92 158.69 32.89 158.25C34.43 157.9 32.89 157.91 29.6 158.27C25 158.76 23.68 158.48 23.68 157.08C23.68 155.95 25.66 155.2 28.51 155.14C31.36 155.1 32.24 154.8 30.7 154.48C29.17 154.16 28.07 153.08 28.07 152.09C28.07 151.09 28.73 150.62 29.6 151.04C30.26 151.47 33.33 151.03 36.18 150.07C39.03 149.04 44.96 148.46 50.22 148.63C56.14 148.84 59.65 148.42 60.31 147.47C60.96 146.67 60.53 146.09 59.43 146.18C58.55 146.27 56.14 146.28 54.39 146.2C51.53 146.07 51.53 145.93 54.39 144.93C57.24 143.98 57.02 143.82 53.95 143.81C49.78 143.79 46.27 139.08 48.68 137.06C49.56 136.38 54.6 137.39 61.18 139.5C70.39 142.48 72.59 142.82 74.12 141.44C77.19 139.05 76.75 137.38 73.68 138.98C72.15 139.74 69.52 140.35 67.98 140.35C65.35 140.35 65.35 140.02 67.54 138.67C69.52 137.32 69.3 136.6 66.45 135.01C63.81 133.73 63.38 132.87 65.13 132.58C66.45 132.36 67.54 131.65 67.54 131.03C67.54 130.4 65.35 130.25 62.94 130.67C59.65 131.2 58.77 131.04 59.65 130.18C60.53 129.46 59.65 128.91 57.67 128.91C55.92 128.91 54.39 128.43 54.39 127.83C54.39 125.57 58.77 125.52 65.57 127.71C72.15 129.76 73.46 129.83 77.85 128.33C80.48 127.4 83.99 126.94 85.74 127.29C87.5 127.64 89.69 127.38 90.35 126.7C91.23 126.03 90.79 125.48 89.47 125.48C88.38 125.48 87.28 124.58 87.28 123.47C87.06 121.67 86.84 121.69 83.99 123.69C80.04 126.35 79.6 125.2 83.11 121.69C85.74 119.19 85.74 119.19 80.92 121.39C76.1 123.59 76.1 123.59 73.46 119.96C71.93 117.79 69.52 116.45 67.54 116.62C65.57 116.79 64.03 115.85 63.38 114.17C62.94 111.78 63.38 111.54 68.2 112.17C76.1 113.19 81.58 111.95 78.29 109.91C76.97 109.05 76.31 107.56 77.19 106.58C78.07 105.16 77.63 105.05 74.12 106C67.32 107.91 65.13 107.42 66.67 104.3C67.54 102.49 67.1 101.44 65.35 101.44C64.03 101.44 63.6 100.91 64.25 100.25C65.13 99.6 64.47 98.18 62.72 97.11C61.18 96.03 64.25 97.23 69.74 99.76C75.22 102.3 82.67 105.07 86.62 105.91C90.57 106.74 93.2 107.89 92.54 108.45C91.88 109.01 92.1 109.49 93.2 109.53C94.08 109.58 98.02 109.83 101.97 110.1C106.36 110.39 109.21 110.08 109.21 109.33C109.21 108.63 110.52 108.32 112.06 108.64C113.81 108.97 114.25 109.45 114.47 108.06C114.69 106.31 115.13 107.83 113.16 107.28C109.43 106.17 102.63 107.59 102.63 106.02C102.63 105.39 100.88 104.88 98.68 104.88C96.49 104.88 92.76 104.12 90.13 103.21C87.72 102.28 85.09 101.86 84.21 102.26C83.55 102.65 82.89 102.12 82.89 101.07L82.89 98.3C82.89 96.37 97.81 97.48 106.36 100.06L115.79 100.91L115.79 99.73C115.79 97.62 114.47 96.47 111.4 96.05C106.8 95.45 105.26 93.43 109.21 93.43C110.52 93.43 110.52 92.64 108.99 91.34C106.36 89.13 95.83 89.21 96.71 91.43C96.93 92.07 94.3 93.01 91.01 93.49C87.28 94.05 85.09 93.95 85.09 93.19C85.09 92.45 83.99 92.51 82.02 93.35C79.82 94.27 78.51 94.31 77.41 93.5C76.75 92.84 78.29 91.82 81.14 91.24C100.66 87.07 104.82 85.98 105.92 84.49C106.8 83.19 106.36 83.1 104.17 84.11C102.41 84.83 100.44 85.07 99.78 84.67C98.9 84.25 93.2 84.01 86.84 84.13C75.66 84.33 73.03 83.56 82.24 82.82C89.47 82.25 93.86 79.71 92.98 76.75C92.1 74.38 92.54 74.22 96.05 75.4C98.24 76.13 99.78 77.01 99.34 77.35C98.9 77.71 101.97 78.12 106.14 78.28C110.52 78.44 113.38 78.14 112.72 77.63C112.06 77.1 112.94 75.34 114.47 73.69C117.1 71.15 117.1 70.8 114.47 71.32C112.5 71.73 111.4 71.13 111.4 69.53C111.4 68.2 110.09 67.11 108.33 67.11C106.58 67.11 104.82 66.16 104.17 65C103.29 63.02 103.73 63.04 111.4 65.27C116.01 66.57 119.52 67.91 119.08 68.23C118.64 68.56 121.71 68.96 126.09 69.12C132.89 69.39 133.33 69.25 130.26 67.61C128.29 66.62 126.75 65.45 126.75 65.03C126.75 64.59 123.68 63.55 120.17 62.72C116.45 61.87 114.25 60.66 114.91 59.98C115.79 59.31 115.13 58.2 113.38 57.5C111.62 56.81 109.21 54.6 107.67 52.59C105.48 49.15 105.48 49.02 109.43 50.3C111.84 51.04 113.16 52.18 112.72 52.8C112.28 53.43 114.69 54.06 118.2 54.19C122.37 54.35 124.56 53.89 124.56 52.79C124.56 51.73 125.88 51.42 128.29 51.91C131.36 52.53 131.14 52.19 127.41 50.12C121.93 47.04 121.93 42.44 127.19 42.66C129.38 42.75 131.58 41.84 132.23 40.64C133.11 39.45 134.43 38.74 135.52 39.08C136.62 39.41 137.94 39.2 138.59 38.6C139.47 38.01 137.94 37.19 135.52 36.79C133.11 36.39 131.14 35.21 131.14 34.2C131.14 32.74 131.8 32.63 133.77 33.69C137.28 35.57 139.91 35.42 139.91 33.35C139.91 32.41 141.01 31.63 142.32 31.63C143.64 31.63 147.37 30.57 150.44 29.26C153.73 27.96 156.58 27.41 157.02 28.05C157.89 29.65 148.9 34.16 146.49 33.34C145.17 32.96 144.95 33.45 145.61 34.44C146.27 35.42 145.83 36.21 144.52 36.21C143.2 36.21 142.1 37.25 142.1 38.52C142.1 40.82 142.1 40.82 151.31 38.4C156.58 37.05 162.28 35.2 164.25 34.29C166.88 33.1 168.42 32.99 169.51 33.93C170.39 34.69 169.08 35.48 166.44 35.84C164.03 36.19 161.4 37.45 160.52 38.65C159.87 39.84 158.55 40.56 157.45 40.24C155.48 39.57 152.85 42.41 151.75 46.34C151.31 47.81 149.34 49.7 147.15 50.54C141.23 52.77 144.52 53.56 151.75 51.63C155.04 50.7 159.21 49.94 160.74 49.94C162.28 49.94 166.66 48.62 170.39 46.98C176.75 44.19 177.19 44.15 177.19 46.34C177.19 47.63 175.22 48.96 172.8 49.37C170.39 49.76 168.64 50.68 169.08 51.4C169.3 52.12 167.98 52.72 166.23 52.76C162.94 52.8 160.09 56.82 163.37 56.81C164.25 56.8 167.98 56.02 171.49 55.07C175 54.12 178.29 53.61 178.94 53.94C179.6 54.26 178.73 54.53 176.97 54.54C174.78 54.56 174.56 54.8 176.53 55.44C180.7 56.82 176.09 59.39 169.51 59.39C164.03 59.39 163.59 59.66 164.69 63.25C165.79 66.68 165.35 67.11 160.96 67.11C158.33 67.11 155.04 66.56 153.73 65.9C152.19 65.03 151.09 65.41 150.22 67.18C148.9 69.53 149.56 69.63 158.11 68.92C163.16 68.51 171.05 67.24 175.44 66.09C182.45 64.3 183.33 64.26 181.58 65.85C178.07 68.91 171.05 72.83 169.08 72.83C165.35 72.83 154.82 78.83 156.8 79.85C159.87 81.43 177.63 77.77 185.74 73.87C191.01 71.41 193.86 70.75 195.39 71.62C197.15 72.48 196.93 72.83 194.95 72.83C193.42 72.83 192.98 73.38 193.64 74.03C194.51 74.7 192.54 76.44 189.69 77.9C185.3 79.95 184.65 80.89 186.62 81.93C188.16 82.69 188.16 83.16 187.06 83C182.01 82.3 175 84.53 175 86.75C175 88.11 173.24 89.32 170.61 89.67C168.2 90 166.23 90.71 166.23 91.25C166.23 91.78 164.47 91.89 162.5 91.49C160.09 90.98 159.43 91.19 160.52 92.14C163.37 94.59 172.15 92.19 187.06 84.85C189.69 83.59 193.64 81.79 195.83 80.84C199.56 79.29 199.78 79.32 198.46 81.13C197.58 82.24 198.02 83.13 199.12 83.13C200.22 83.13 199.56 84.15 197.58 85.39C192.1 88.71 191.44 93.43 196.27 93.47C199.78 93.5 199.78 93.65 195.83 94.83C193.42 95.56 191.23 95.93 191.01 95.65C190.57 95.38 188.81 96.32 186.84 97.72C184.87 99.2 181.14 100.3 178.07 100.3C171.27 100.3 171.27 101.87 178.29 103.53C182.01 104.4 185.52 104.47 189.25 103.73C192.54 103.07 194.73 103.07 194.73 103.71C194.73 104.29 197.15 103.52 200 101.97C203.07 100.43 206.8 99.15 208.55 99.15C210.3 99.15 212.28 98.12 212.94 96.87C214.25 93.96 217.1 93.96 220.61 96.87C222.8 98.83 222.8 99.17 219.29 99.18C216.22 99.19 216.01 99.36 218.86 100.25C221.49 101.17 221.49 101.44 218.2 102.11C216.01 102.53 214.69 103.58 215.35 104.42C216.01 105.27 214.91 106.71 213.15 107.64C211.18 108.75 210.74 109.57 212.28 110.06C215.35 111.01 210.74 114.03 206.58 114.03C204.82 114.03 203.51 114.58 203.51 115.25C203.51 116.05 207.01 116.2 213.81 115.68C219.51 115.25 223.46 115.31 222.58 115.83C220.83 116.76 219.08 117.04 207.89 117.99C204.82 118.24 201.97 118.55 201.31 118.67C200.65 118.77 197.8 118.84 194.73 118.82C190.57 118.77 190.13 118.91 193.42 119.39C200.44 120.42 203.29 122.46 200 124.08C198.46 124.85 195.39 125.48 193.42 125.48C190.57 125.48 190.35 125.83 192.32 127.02C193.64 127.86 194.08 128.88 193.2 129.28C192.54 129.68 193.42 130.33 195.39 130.72C197.37 131.12 198.46 131.91 197.8 132.47C194.51 135.34 225.22 130.91 229.82 127.88C231.79 126.6 243.2 122.99 244.08 123.43C244.51 123.66 243.64 125.11 242.1 126.67C240.35 128.5 237.93 129.36 235.08 129.12C230.92 128.75 230.92 128.78 235.3 130.5C239.03 131.99 239.03 132.28 235.96 132.31C232.23 132.36 228.94 135.33 230.92 137.02C231.79 137.6 230.26 138.07 227.85 138.07C224.78 138.07 222.8 139.05 221.93 140.97C221.05 142.56 217.76 144.64 214.25 145.56C210.3 146.65 208.55 147.85 209.21 148.95C209.87 149.89 210.96 150.65 211.4 150.65C215.13 150.65 244.95 142.45 248.24 140.49C252.41 138.01 260.52 137.17 260.52 139.21C260.52 139.84 258.33 140.37 255.48 140.38C251.97 140.39 251.53 140.66 253.5 141.37C256.79 142.46 255.04 147.22 251.53 147.22C250.22 147.22 249.78 147.74 250.65 148.37C251.31 149 250.87 149.51 249.56 149.51C248.24 149.51 247.58 149.99 248.24 150.57C249.12 151.16 247.36 151.81 244.73 152.01C241.88 152.21 239.69 153.15 239.69 154.09C239.69 155.12 237.28 155.95 233.55 156.17C230.26 156.37 227.63 157.21 227.63 158.04C227.63 158.86 225.44 160.35 222.58 161.33C218.42 162.89 218.2 163.14 221.71 163.19C223.9 163.22 225.22 163.71 224.34 164.29C222.58 165.9 232.45 164.29 238.81 161.93C242.1 160.76 245.39 159.81 246.27 159.81C246.93 159.81 250.87 158.51 255.04 156.89C262.28 154.02 266.22 154.49 263.59 157.92C262.93 158.88 261.18 159.42 259.65 159.12C258.11 158.81 256.79 159.36 256.79 160.34C256.79 161.31 258.33 162.15 260.3 162.19C262.28 162.25 262.72 162.51 261.18 162.84C259.65 163.14 259.21 164.19 259.86 165.17C260.96 166.67 260.3 166.73 256.36 165.62C251.75 164.3 249.56 165.83 254.16 167.31C257.45 168.43 248.24 172.53 244.08 171.7C242.32 171.32 240.79 171.6 240.79 172.32C240.79 173.03 242.1 173.9 243.86 174.25C245.61 174.6 246.49 175.6 245.83 176.5C245.17 177.39 243.86 177.82 242.76 177.48C241.66 177.13 240.79 177.65 240.79 178.63C240.79 181.84 246.27 180.51 257.23 174.6C268.86 168.38 279.16 164.91 281.14 166.55C281.79 167.11 280.92 168.2 279.16 168.98C274.78 170.83 275 175.71 279.38 178.21C282.23 179.88 282.23 180.57 279.82 182.61C278.29 183.94 275.65 184.77 274.12 184.47C272.58 184.16 271.49 184.4 271.49 184.99C271.49 185.58 269.95 185.77 268.2 185.41C264.25 184.61 263.81 186.26 267.54 188.34C269.95 189.58 269.51 189.63 265.79 188.6C260.3 187.17 258.33 187.86 258.33 191.03C258.33 192.86 257.23 193.13 252.19 192.52C248.24 192.04 247.15 192.14 249.34 192.84C253.07 194.18 250.43 196.56 246.05 195.69C243.86 195.24 243.2 195.57 244.29 196.79C245.39 198.36 246.27 198.36 253.5 196.81C257.89 195.87 265.79 193.01 270.83 190.46L279.82 185.84L278.72 190.85C277.85 193.61 276.53 196.04 275.43 196.25C271.93 196.97 266.88 203.13 269.29 203.88C270.39 204.26 271.49 205 271.49 205.53C271.49 206.94 259.65 207.87 257.23 206.65C254.38 205.13 251.75 205.35 251.75 207.12C251.75 207.96 255.26 209.22 259.65 209.9C268.42 211.32 277.41 210.18 281.79 207.04C284.43 205.34 284.64 205.37 284.64 207.44C284.64 208.71 282.67 210.86 280.04 212.24C277.63 213.62 276.53 214.76 277.41 214.78C278.29 214.79 275.87 215.63 272.14 216.62C268.2 217.63 265.57 218.91 266.22 219.47C267.98 221.04 260.74 222.02 257.67 220.64C255.48 219.72 253.72 220.01 250.87 221.74C248.9 223.01 244.95 223.97 242.32 223.85C234.65 223.53 232.67 223.99 237.5 224.99C240.13 225.55 244.73 225.32 248.9 224.43C254.82 223.17 256.36 223.19 258.55 224.59C259.86 225.5 262.72 225.99 264.69 225.7C266.66 225.39 270.83 224.9 274.12 224.6C277.63 224.3 282.45 223.7 284.86 223.28C289.25 222.56 289.25 222.79 283.55 226.57C280.26 228.95 276.53 230.38 274.78 230.02C270.61 229.21 263.81 232 263.81 234.49C263.81 235.6 263.15 236.36 262.28 236.2C261.62 236.05 258.77 237.13 256.36 238.61C253.94 240.07 250.87 240.96 249.78 240.59C246.05 239.4 244.29 242.49 247.8 243.86C250.43 244.87 248.24 245.13 237.28 245.05C225.22 244.96 223.24 245.23 223.24 246.97C223.24 248.31 222.15 248.78 219.95 248.36C218.2 247.99 214.91 248.08 212.72 248.56C210.74 249.03 206.8 249.31 203.94 249.17C196.05 248.76 198.46 251.03 207.23 252.38L215.57 253.62L205.04 253.08C199.12 252.79 194.73 253.03 194.73 253.68C194.73 254.3 196.93 254.85 199.56 254.88C204.38 254.96 204.38 255.01 200.22 255.9C196.93 256.58 194.3 256.12 190.13 254.1C184.43 251.33 180.26 250.42 182.67 252.51C183.33 253.14 182.89 253.66 181.58 253.66C176.31 253.66 179.82 255.73 186.4 256.42C192.76 257.1 193.2 257.34 189.69 258.38C187.5 259.03 183.99 259.19 182.01 258.73C179.82 258.26 177.63 257.95 176.75 258.03C175.87 258.11 173.9 256.65 172.37 254.78C168.86 250.53 166.66 250.45 165.79 254.51C165.35 256.63 164.03 257.53 161.84 257.26C149.56 255.78 148.68 256.06 148.68 260.97C148.68 265.57 151.75 278.57 154.38 284.84C155.48 287.85 155.26 287.99 147.15 287.99L138.59 287.99L139.47 279.95C139.91 275.54 139.69 268.57 138.81 264.46ZM104.82 255.94C107.02 255.83 107.24 255.57 105.48 255.21C103.95 254.9 103.51 253.83 104.17 252.82C105.26 251.37 104.6 251.16 101.31 251.86C94.3 253.32 90.57 253.43 87.72 252.22C85.96 251.47 85.09 251.48 85.09 252.29C85.09 252.95 83.33 253.71 81.14 253.98C77.85 254.39 78.07 254.59 82.24 255.49C86.4 256.39 93.86 256.54 104.82 255.94ZM50 237.34C50 236.79 48.46 237.11 46.71 238.04C44.96 238.99 43.42 240.45 43.42 241.27C43.64 242.94 50 239.05 50 237.34ZM78.29 230.77C76.97 230.77 76.31 229.88 77.19 228.76C78.29 226.91 78.29 226.92 75.44 228.81C73.03 230.49 71.93 230.59 69.3 229.38C66.01 227.66 50 226.99 50 228.56C50 229.15 48.46 229.62 46.71 229.62C42.1 229.62 42.54 231.66 47.15 232.16C55.7 233.08 80.7 232.84 80.7 231.84C80.7 231.26 79.6 230.77 78.29 230.77ZM102.63 231.91C102.63 230.43 98.9 230.43 97.15 231.91C96.27 232.54 97.37 233.06 99.12 233.06C101.09 233.06 102.63 232.54 102.63 231.91ZM134.43 229.63C135.09 228.99 134.21 228.8 132.23 229.19C128.51 229.95 127.85 230.77 130.92 230.77C132.02 230.77 133.55 230.26 134.43 229.63ZM227.63 227.33C227.63 226.7 226.09 226.19 224.34 226.19C222.58 226.19 221.05 226.7 221.05 227.33C221.05 227.96 222.58 228.48 224.34 228.48C226.09 228.48 227.63 227.96 227.63 227.33ZM47.81 225.75C47.81 225.51 45.83 225.04 43.42 224.71C41.01 224.39 39.47 224.59 40.13 225.16C41.45 226.15 47.81 226.66 47.81 225.75ZM228.72 223.9C226.97 222.43 225.44 222.43 225.44 223.9C225.44 224.53 226.53 225.04 227.63 225.04C228.94 225.04 229.38 224.53 228.72 223.9ZM57.67 219.32C58.33 218.69 56.8 218.19 53.95 218.2C49.78 218.21 49.56 218.43 52.19 219.32C56.14 220.71 55.92 220.71 57.67 219.32ZM67.54 218.11C67.54 217.44 66.45 217.22 65.35 217.61C62.5 218.52 62.5 219.32 65.35 219.32C66.45 219.32 67.54 218.78 67.54 218.11ZM37.28 216.78C39.47 217.71 42.1 217.55 47.59 216.16C51.75 215.13 53.95 214.09 52.41 213.84C51.1 213.59 48.24 214.05 46.49 214.85C43.64 216.03 42.76 216.04 41.45 214.87C39.91 213.74 37.72 213.71 30.26 214.76C23.25 215.74 21.49 216.36 23.9 217.11C27.85 218.46 28.95 218.44 31.8 216.86C33.77 215.89 35.31 215.88 37.28 216.78ZM256.79 212.54C258.99 211.44 254.6 211.38 242.32 212.33C241.44 212.4 240.79 213 240.79 213.67C240.79 215.17 253.5 214.26 256.79 212.54ZM42.32 207.89C42.98 207.25 42.1 207.05 40.13 207.44C36.4 208.21 35.75 209.02 38.82 209.02C39.91 209.02 41.45 208.52 42.32 207.89ZM53.29 191.86C51.53 190.39 50 190.39 50 191.86C50 192.48 51.1 193 52.19 193C53.51 193 53.95 192.48 53.29 191.86ZM52.63 183.23C50.88 183.59 46.93 183.08 44.08 182.06C40.57 180.9 36.62 180.49 33.11 180.95C26.32 181.82 27.63 182.64 39.69 185.14C50.66 187.43 52.41 187.54 56.36 186.25C60.31 184.95 57.24 182.34 52.63 183.23ZM267.32 176.59C266.66 177.22 264.25 178.05 262.06 178.45C255.26 179.78 258.11 181.56 267.1 181.56C271.93 181.56 275.87 181.01 275.87 180.33C275.87 178.35 269.07 175.33 267.32 176.59ZM63.81 176.29C62.94 176.67 64.25 176.94 66.67 176.89C69.08 176.84 69.74 176.57 67.98 176.2C66.45 175.87 64.47 175.91 63.81 176.29ZM79.6 160.95C83.11 160.93 83.33 160.73 80.7 159.87C78.73 159.2 76.53 159.23 75 159.94C73.24 160.63 71.71 160.66 71.05 159.99C70.39 159.4 71.27 158.61 73.03 158.25C74.78 157.89 76.31 156.94 76.31 156.13C76.31 155.15 75.66 155.07 74.56 155.9C72.15 157.74 65.57 158.72 64.03 157.45C63.38 156.85 61.84 156.64 60.74 157.01C59.65 157.36 58.77 157.12 58.77 156.46C58.77 155.8 56.58 155.38 53.73 155.54C50.22 155.74 48.9 155.23 49.12 153.8C49.34 152.65 48.03 151.81 45.83 151.82C29.6 151.9 40.79 159.44 60.31 161.63C76.75 163.47 83.11 163.64 78.51 162.1C75.66 161.18 75.88 160.99 79.6 160.95ZM205.7 148.37C205.7 147.74 204.6 147.22 203.51 147.22C202.19 147.22 201.31 147.74 201.31 148.37C201.31 149 202.19 149.51 203.51 149.51C204.6 149.51 205.7 149 205.7 148.37ZM69.74 147.22C72.37 146.33 72.15 146.11 67.98 146.1C65.35 146.09 63.16 146.59 63.16 147.22C63.16 148.66 65.35 148.66 69.74 147.22ZM89.25 129.73C86.62 131.05 88.16 133.49 91.67 133.49C92.76 133.49 94.3 132.93 94.95 132.25C97.37 130.34 92.32 128.16 89.25 129.73ZM105.92 130.05C104.17 128.59 102.63 128.59 102.63 130.05C102.63 130.68 103.73 131.2 104.82 131.2C106.14 131.2 106.58 130.68 105.92 130.05ZM194.73 123.19C194.73 122.56 193.64 122.04 192.32 122.04C191.01 122.04 190.57 122.56 191.44 123.19C193.2 124.65 194.73 124.65 194.73 123.19ZM108.11 118.61C108.77 117.98 108.55 117.47 107.24 117.47C106.14 117.47 104.38 117.98 103.73 118.61C102.85 119.24 103.29 119.75 104.6 119.75C105.7 119.75 107.24 119.24 108.11 118.61ZM95.39 117.18C94.52 115.57 91.01 115.74 89.91 117.47C89.47 118.1 90.79 118.61 92.76 118.61C94.74 118.61 96.05 117.97 95.39 117.18ZM80.48 114.18C77.41 116.64 78.07 117.31 82.89 116.65C85.31 116.33 87.28 115.63 87.28 115.12C87.28 113.29 82.45 112.61 80.48 114.18ZM185.96 107.72C194.3 105.52 194.08 105.15 185.96 105.78C182.45 106.06 179.82 106.7 180.48 107.21C181.14 107.73 179.38 108.38 176.75 108.65C173.24 109 172.8 109.19 175.66 109.31C177.85 109.39 182.45 108.68 185.96 107.72ZM156.14 94.58C154.38 94.58 153.51 95.1 154.16 95.74C155.48 96.8 159.65 96.29 159.65 95.08C159.65 94.81 158.11 94.58 156.14 94.58ZM131.14 78.19C131.14 77.11 128.95 76.84 123.9 77.24C117.1 77.8 117.1 77.85 122.37 78.65C130.48 79.87 131.14 79.84 131.14 78.19ZM48.24 256.31C50 256.68 49.34 256.95 46.93 257C44.52 257.05 43.2 256.78 44.08 256.4C44.74 256.02 46.71 255.98 48.24 256.31ZM82.89 71.8C80.26 69.14 80.04 68.25 82.24 68.25C85.31 68.25 89.47 72.68 87.28 73.39C86.18 73.75 84.21 73.04 82.89 71.8ZM115.79 37.19C115.79 36.66 116.66 36.21 117.76 36.21C118.86 36.21 121.27 35.9 123.24 35.52C125.22 35.13 126.75 35.34 126.75 35.96C126.75 36.58 124.34 37.34 121.27 37.64C118.2 37.94 115.79 37.74 115.79 37.19ZM136.62 27.42C140.79 28.18 140.79 28.14 136.84 26.56C133.11 25.05 133.55 24.94 140.79 25.13C145.17 25.25 148.68 25.48 148.68 25.62C148.68 26.08 139.91 30.49 139.03 30.49C138.59 30.49 136.84 29.62 135.3 28.57C132.45 26.85 132.67 26.72 136.62 27.42ZM133.99 18.24C135.96 18.64 137.72 18.47 137.72 17.86C137.72 17.26 138.81 16.75 140.13 16.75C141.88 16.75 141.88 17.18 140.35 18.23C137.28 20.05 139.69 22.03 145.39 22.79C148.9 23.26 148.68 23.38 144.3 23.46C140.79 23.52 137.28 22.48 134.65 20.53C130.92 17.91 130.92 17.6 133.99 18.24ZM135.74 13.05C132.45 11.26 132.67 9.89 136.4 9.89C139.91 9.89 142.76 12.96 140.13 13.81C139.25 14.12 137.28 13.78 135.74 13.05ZM137.94 0.63C139.25 -0.54 139.91 -0.13 139.91 2.16C139.91 5.58 138.81 6.2 137.06 3.78C136.4 2.94 136.84 1.52 137.94 0.63Z" />
		</g>
		<text id="11 " style="transform: matrix(2.412,0,0,2.412,88.609,218.764)" >
			<tspan x="0" y="0" class="txt1">14</tspan>
		</text>
	</g>
</svg>