<svg id="SvgjsSvg1021" width="288" height="288" xmlns="http://www.w3.org/2000/svg" version="1.1" xmlns:xlink="http://www.w3.org/1999/xlink" xmlns:svgjs="http://svgjs.com/svgjs"><defs id="SvgjsDefs1022"></defs><g id="SvgjsG1023"><svg xmlns="http://www.w3.org/2000/svg" version="1.0" viewBox="0 0 131.33 251.65" width="288" height="288"><path d="m1314.5 692.41c0.2-3.86 0.1-9.95-0.3-13.54-0.6-6.13-0.8-6.47-2.8-5.76-1.2 0.42-3.5 0.73-5 0.68-1.5-0.04-2.7 0.23-2.7 0.59 0 0.37-1.3 0.58-3 0.46-2.1-0.15-3.1 0.32-3.5 1.7-0.7 2.19-3.5 2.58-3.5 0.48 0-1.47-1.6-1.58-3.8-0.26-0.8 0.53-1 0.3-0.6-0.7 0.4-1.11 0-1.37-1.8-1.04-1.3 0.24-1.8 0.17-1.1-0.16 1.8-0.82 1.6-2.49-0.1-1.83-0.8 0.3-2.1-0.49-3-1.75l-1.6-2.29v2.22c0 1.22-0.5 2.22-1 2.22-0.6 0-1-0.38-1-0.86 0-0.47-1.1-0.64-2.5-0.38-1.5 0.28-2.5 0.01-2.5-0.64 0-0.61 0.8-1.12 1.9-1.12 1 0 2.4-0.64 3-1.43 0.7-0.79 2.5-1.73 4.1-2.08 4.7-1.03 4.3-2.12-0.9-2.15-2.6-0.02-6-0.33-7.5-0.71s-3.6-0.16-4.8 0.49c-1.7 0.88-2.3 0.88-2.6 0.02-0.2-0.63-0.8-0.9-1.3-0.59-1.3 0.81-8-0.62-7.4-1.59 0.3-0.45 2-0.59 3.8-0.3 2.8 0.46 3.3 0.19 4.3-2.37 0.9-2.54 0.8-2.9-0.9-3.03-1.4-0.11-1.6 0.16-0.8 1.18 0.9 1.01 0.7 1.49-0.6 2-1 0.37-1.9 0.2-2.1-0.38s-0.9-1.06-1.6-1.06c-0.6 0-1.6-1.01-2.1-2.25-0.6-1.41-1.9-2.29-3.5-2.36-5.4-0.23-5.5-0.34-3.2-1.98 2-1.41 2.1-1.74 0.8-2.75-0.9-0.64-1.9-2.62-2.2-4.41-0.8-4.03 1.2-4.39 4.5-0.83 3.3 3.53 7.4 5.02 10 3.63 2.2-1.16 2.8-3.05 1.1-3.05-0.6 0-0.9-0.56-0.8-1.25 0.2-0.68-0.3-1.13-1-1-0.7 0.14-1.2-0.15-1.2-0.65s-0.9-0.67-2.1-0.38c-1.1 0.3-1.9 0.14-1.7-0.34 0.1-0.48-0.4-1.9-1-3.15-1.7-2.95-0.9-4 3.4-4.81 2.3-0.43 3.2-1.01 2.6-1.63-0.7-0.63-1.7-0.58-3 0.12-2.6 1.36-4.2 1.4-4.2 0.09 0-0.55 0.9-1 1.9-1 3.4 0 3.4-1.97 0-3.38l-3.2-1.34 2.9-0.72 2.9-0.72-2.8-2.37c-1.5-1.3-2.7-2.61-2.7-2.89 0-0.57 5.6 0.25 8 1.17 0.8 0.32 1.8 0.62 2.2 0.67 0.3 0.04 1 0.42 1.4 0.83 1.5 1.56 10.4 0.39 10.4-1.36 0-0.49-1-0.89-2.3-0.9-1.2-0.01-3.3-1.11-4.5-2.45-1.4-1.51-2.9-2.2-3.9-1.81-1.3 0.49-1.5 0.21-0.9-1.3 0.5-1.49 0.4-1.66-0.5-0.74-1.4 1.41-3.3-0.03-4.3-3.38-0.5-1.42-1.3-1.95-2.5-1.62-1.4 0.35-2-0.2-2.3-2.1-0.5-2.57 0.5-3.51 1.7-1.59 0.9 1.54 4.5 1.19 5.1-0.5 0.3-0.82 1.2-1.5 2-1.5s1.4-0.45 1.4-1-0.7-1-1.5-1-1.5-0.45-1.5-1-0.7-1-1.6-1c-1.3 0-1.4-0.31-0.5-1.34 1.4-1.71 0.2-2.99-1.5-1.57-1 0.81-1.3 0.59-1.1-0.94 0-1.11 0.6-1.78 1.1-1.5 0.6 0.27 0.3-0.14-0.7-0.93-0.9-0.79-1.7-1.72-1.7-2.08 0-1.36 2.3-0.52 6.5 2.36 2.4 1.65 4.6 3 4.9 3 1.5 0 0.3-2.94-2.4-5.71-2.1-2.15-2.7-3.27-1.8-3.65 0.7-0.31 0-0.3-1.5 0.01-2.1 0.43-2.7 0.19-2.7-1.04 0-0.98 0.9-1.64 2.2-1.69 1.3-0.04 1.7-0.3 1-0.58s-1.2-1.22-1.2-2.09 0.3-1.28 0.7-0.91c0.3 0.37 1.7-0.01 3-0.85 1.3-0.9 4-1.41 6.4-1.26 2.7 0.18 4.3-0.18 4.6-1.01 0.3-0.7 0.1-1.21-0.4-1.13-0.4 0.08-1.5 0.09-2.3 0.02-1.3-0.12-1.3-0.24 0-1.11 1.3-0.83 1.2-0.97-0.2-0.98-1.9-0.02-3.5-4.13-2.4-5.9 0.4-0.59 2.7 0.29 5.7 2.13 4.2 2.61 5.2 2.9 5.9 1.7 1.4-2.09 1.2-3.55-0.2-2.15-0.7 0.66-1.9 1.2-2.6 1.2-1.2 0-1.2-0.29-0.2-1.47 0.9-1.18 0.8-1.81-0.5-3.2-1.2-1.12-1.4-1.87-0.6-2.12 0.6-0.2 1.1-0.82 1.1-1.36 0-0.55-1-0.68-2.1-0.31-1.5 0.46-1.9 0.32-1.5-0.43 0.4-0.63 0-1.11-0.9-1.11-0.8 0-1.5-0.42-1.5-0.94 0-1.98 2-2.02 5.1-0.11 3 1.79 3.6 1.85 5.6 0.54 1.2-0.81 2.8-1.21 3.6-0.91 0.8 0.31 1.8 0.08 2.1-0.51 0.4-0.59 0.2-1.07-0.4-1.07-0.5 0-1-0.78-1-1.75-0.1-1.58-0.2-1.56-1.5 0.19-1.8 2.32-2 1.32-0.4-1.75 1.2-2.18 1.2-2.18-1-0.26s-2.2 1.92-3.4-1.25c-0.7-1.9-1.8-3.07-2.7-2.92s-1.6-0.67-1.9-2.14c-0.2-2.09 0-2.3 2.2-1.75 3.6 0.89 6.1-0.19 4.6-1.97-0.6-0.75-0.9-2.06-0.5-2.91 0.4-1.24 0.2-1.34-1.4-0.51-3.1 1.67-4.1 1.24-3.4-1.48 0.4-1.59 0.2-2.5-0.6-2.5-0.6 0-0.8-0.47-0.5-1.04 0.4-0.57 0.1-1.81-0.7-2.75-0.7-0.94 0.7 0.11 3.2 2.32 2.5 2.22 5.9 4.64 7.7 5.37s3 1.73 2.7 2.22-0.2 0.91 0.3 0.95c0.4 0.04 2.2 0.26 4 0.49 2 0.26 3.3-0.01 3.3-0.67 0-0.61 0.6-0.88 1.3-0.6 0.8 0.29 1 0.71 1.1-0.51 0.1-1.53 0.3-0.2-0.6-0.68-1.7-0.97-4.8 0.27-4.8-1.1 0-0.55-0.8-1-1.8-1s-2.7-0.66-3.9-1.46c-1.1-0.81-2.3-1.18-2.7-0.83-0.3 0.34-0.6-0.12-0.6-1.04v-2.42c0-1.68 6.8-0.71 10.7 1.54l4.3 0.74v-1.03c0-1.84-0.6-2.85-2-3.21-2.1-0.53-2.8-2.29-1-2.29 0.6 0 0.6-0.69-0.1-1.83-1.2-1.93-6-1.86-5.6 0.08 0.1 0.56-1.1 1.38-2.6 1.8-1.7 0.49-2.7 0.4-2.7-0.26 0-0.65-0.5-0.6-1.4 0.14-1 0.8-1.6 0.84-2.1 0.13-0.3-0.58 0.4-1.47 1.7-1.98 8.9-3.64 10.8-4.59 11.3-5.89 0.4-1.14 0.2-1.22-0.8-0.34-0.8 0.63-1.7 0.84-2 0.49-0.4-0.36-3-0.57-5.9-0.47-5.1 0.18-6.3-0.5-2.1-1.14 3.3-0.5 5.3-2.72 4.9-5.31-0.4-2.07-0.2-2.21 1.4-1.18 1 0.64 1.7 1.41 1.5 1.71-0.2 0.31 1.2 0.67 3.1 0.81 2 0.14 3.3-0.12 3-0.57-0.3-0.46 0.1-2 0.8-3.44 1.2-2.22 1.2-2.53 0-2.07-0.9 0.36-1.4-0.17-1.4-1.57 0-1.16-0.6-2.11-1.4-2.11s-1.6-0.83-1.9-1.84c-0.4-1.73-0.2-1.72 3.3 0.23 2.1 1.14 3.7 2.31 3.5 2.59-0.2 0.29 1.2 0.64 3.2 0.78 3.1 0.23 3.3 0.11 1.9-1.32-0.9-0.87-1.6-1.89-1.6-2.26 0-0.38-1.4-1.29-3-2.02-1.7-0.74-2.7-1.8-2.4-2.39 0.4-0.59 0.1-1.56-0.7-2.17-0.8-0.6-1.9-2.53-2.6-4.29-1-3-1-3.12 0.8-2 1.1 0.65 1.7 1.64 1.5 2.19s0.9 1.1 2.5 1.21c1.9 0.14 2.9-0.26 2.9-1.22 0-0.93 0.6-1.2 1.7-0.77 1.4 0.54 1.3 0.24-0.4-1.57-2.5-2.69-2.5-6.71-0.1-6.51 1 0.07 2-0.72 2.3-1.77 0.4-1.04 1-1.66 1.5-1.36 0.5 0.29 1.1 0.1 1.4-0.42 0.4-0.52-0.3-1.23-1.4-1.58s-2-1.38-2-2.27c0-1.27 0.3-1.37 1.2-0.44 1.6 1.64 2.8 1.51 2.8-0.3 0-0.82 0.5-1.5 1.1-1.5s2.3-0.93 3.7-2.07c1.5-1.14 2.8-1.62 3-1.06 0.4 1.4-3.7 5.34-4.8 4.62-0.6-0.33-0.7 0.1-0.4 0.96s0.1 1.55-0.5 1.55-1.1 0.91-1.1 2.02c0 2.01 0 2.01 4.2-0.11 2.4-1.18 5-2.79 5.9-3.59 1.2-1.04 1.9-1.13 2.4-0.31 0.4 0.66-0.2 1.35-1.4 1.67-1.1 0.3-2.3 1.4-2.7 2.45-0.3 1.04-0.9 1.67-1.4 1.39-0.9-0.58-2.1 1.9-2.6 5.33-0.2 1.29-1.1 2.94-2.1 3.67-2.7 1.95-1.2 2.64 2.1 0.95 1.5-0.81 3.4-1.47 4.1-1.47s2.7-1.16 4.4-2.59c2.9-2.44 3.1-2.47 3.1-0.56 0 1.13-0.9 2.29-2 2.65-1.1 0.34-1.9 1.14-1.7 1.77 0.1 0.63-0.5 1.16-1.3 1.19-1.5 0.04-2.8 3.55-1.3 3.54 0.4-0.01 2.1-0.69 3.7-1.52s3.1-1.28 3.4-0.99c0.3 0.28-0.1 0.52-0.9 0.53-1 0.01-1.1 0.22-0.2 0.78 1.9 1.21-0.2 3.45-3.2 3.45-2.5 0-2.7 0.24-2.2 3.38 0.5 2.99 0.3 3.37-1.7 3.37-1.2 0-2.7-0.48-3.3-1.06-0.7-0.76-1.2-0.43-1.6 1.12-0.6 2.05-0.3 2.14 3.6 1.52 2.3-0.36 5.9-1.47 7.9-2.47 3.2-1.57 3.6-1.6 2.8-0.21-1.6 2.67-4.8 6.1-5.7 6.1-1.7 0-6.5 5.24-5.6 6.13 1.4 1.38 9.5-1.82 13.2-5.22 2.4-2.15 3.7-2.73 4.4-1.97 0.8 0.75 0.7 1.06-0.2 1.06-0.7 0-0.9 0.48-0.6 1.05 0.4 0.58-0.5 2.1-1.8 3.38-2 1.79-2.3 2.61-1.4 3.52 0.7 0.66 0.7 1.07 0.2 0.93-2.3-0.61-5.5 1.34-5.5 3.28 0 1.19-0.8 2.25-2 2.55-1.1 0.29-2 0.91-2 1.38s-0.8 0.56-1.7 0.21c-1.1-0.44-1.4-0.26-0.9 0.57 1.3 2.14 5.3 0.04 12.1-6.37 1.2-1.1 3-2.67 4-3.5 1.7-1.36 1.8-1.33 1.2 0.25-0.4 0.97-0.2 1.75 0.3 1.75s0.2 0.89-0.7 1.97c-2.5 2.9-2.8 7.03-0.6 7.06 1.6 0.03 1.6 0.16-0.2 1.19-1.1 0.64-2.1 0.96-2.2 0.72-0.2-0.24-1 0.58-1.9 1.81-0.9 1.29-2.6 2.25-4 2.25-3.1 0-3.1 1.37 0.1 2.82 1.7 0.76 3.3 0.82 5 0.18 1.5-0.58 2.5-0.58 2.5-0.02 0 0.51 1.1-0.17 2.4-1.52 1.4-1.35 3.1-2.46 3.9-2.46s1.7-0.9 2-2c0.6-2.54 1.9-2.54 3.5 0 1 1.72 1 2.01-0.6 2.02-1.4 0.01-1.5 0.16-0.2 0.94 1.2 0.8 1.2 1.04-0.3 1.62-1 0.37-1.6 1.29-1.3 2.02 0.3 0.74-0.2 2-1 2.81-0.9 0.97-1.1 1.69-0.4 2.12 1.4 0.83-0.7 3.47-2.6 3.47-0.8 0-1.4 0.48-1.4 1.06 0 0.7 1.6 0.83 4.7 0.38 2.6-0.38 4.4-0.32 4 0.13-0.8 0.81-1.6 1.06-6.7 1.89-1.4 0.22-2.7 0.49-3 0.59-0.3 0.09-1.6 0.15-3 0.13-1.9-0.04-2.1 0.08-0.6 0.5 3.2 0.9 4.5 2.68 3 4.1-0.7 0.67-2.1 1.22-3 1.22-1.3 0-1.4 0.31-0.5 1.35 0.6 0.73 0.8 1.62 0.4 1.97-0.3 0.35 0.1 0.92 1 1.26 0.9 0.35 1.4 1.04 1.1 1.53-1.5 2.51 12.5-1.36 14.6-4.01 0.9-1.12 6.1-4.27 6.5-3.89 0.2 0.2-0.2 1.47-0.9 2.83-0.8 1.6-1.9 2.35-3.2 2.14-1.9-0.32-1.9-0.29 0.1 1.21 1.7 1.3 1.7 1.55 0.3 1.58-1.7 0.04-3.2 2.64-2.3 4.12 0.4 0.5-0.3 0.91-1.4 0.91-1.4 0-2.3 0.86-2.7 2.54-0.4 1.39-1.9 3.2-3.5 4.01-1.8 0.95-2.6 2-2.3 2.96 0.3 0.82 0.8 1.49 1 1.49 1.7 0 15.3-7.17 16.8-8.88 1.9-2.17 5.6-2.9 5.6-1.12 0 0.55-1 1.01-2.3 1.02-1.6 0.01-1.8 0.25-0.9 0.87 1.5 0.95 0.7 5.11-0.9 5.11-0.6 0-0.8 0.45-0.4 1 0.3 0.55 0.1 1-0.5 1s-0.9 0.42-0.6 0.93c0.4 0.51-0.4 1.08-1.6 1.25-1.3 0.18-2.3 1-2.3 1.82 0 0.9-1.1 1.63-2.8 1.82-1.5 0.17-2.7 0.91-2.7 1.63s-1 2.02-2.3 2.88c-1.9 1.36-2 1.58-0.4 1.62 1 0.03 1.6 0.46 1.2 0.96-0.8 1.41 3.7 0 6.6-2.06 1.5-1.02 3-1.85 3.4-1.85 0.3 0 2.1-1.14 4-2.55 3.3-2.51 5.1-2.1 3.9 0.9-0.3 0.84-1.1 1.31-1.8 1.05-0.7-0.27-1.3 0.21-1.3 1.06s0.7 1.58 1.6 1.62c0.9 0.05 1.1 0.28 0.4 0.57-0.7 0.26-0.9 1.18-0.6 2.03 0.5 1.31 0.2 1.37-1.6 0.4-2.1-1.16-3.1 0.18-1 1.47 1.5 0.98-2.7 4.56-4.6 3.84-0.8-0.33-1.5-0.09-1.5 0.54 0 0.62 0.6 1.38 1.4 1.69 0.8 0.3 1.2 1.18 0.9 1.96s-0.9 1.16-1.4 0.86c-0.5-0.31-0.9 0.15-0.9 1 0 2.81 2.5 1.65 7.5-3.52 5.3-5.43 10-8.46 10.9-7.03 0.3 0.49-0.1 1.44-0.9 2.12-2 1.62-1.9 5.88 0.1 8.07 1.3 1.46 1.3 2.06 0.2 3.84-0.7 1.16-1.9 1.89-2.6 1.63-0.7-0.27-1.2-0.06-1.2 0.45 0 0.52-0.7 0.68-1.5 0.37-1.8-0.7-2 0.74-0.3 2.56 1.1 1.08 0.9 1.13-0.8 0.23-2.5-1.25-3.4-0.65-3.4 2.12 0 1.6-0.5 1.83-2.8 1.3-1.8-0.42-2.3-0.33-1.3 0.28 1.7 1.17 0.5 3.25-1.5 2.49-1-0.39-1.3-0.1-0.8 0.96 0.5 1.37 0.9 1.37 4.2 0.02 2-0.82 5.6-3.32 7.9-5.55l4.1-4.04-0.5 4.38c-0.4 2.41-1 4.54-1.5 4.72-1.6 0.63-3.9 6.01-2.8 6.67 0.5 0.33 1 0.98 1 1.44 0 1.23-5.4 2.04-6.5 0.98-1.3-1.33-2.5-1.14-2.5 0.41 0 0.73 1.6 1.83 3.6 2.43 4 1.24 8.1 0.24 10.1-2.5 1.2-1.49 1.3-1.46 1.3 0.35 0 1.11-0.9 2.99-2.1 4.19-1.1 1.21-1.6 2.2-1.2 2.22 0.4 0.01-0.7 0.74-2.4 1.61-1.8 0.88-3 2-2.7 2.49 0.8 1.37-2.5 2.23-3.9 1.02-1-0.8-1.8-0.55-3.1 0.96-0.9 1.11-2.7 1.95-3.9 1.85-3.5-0.28-4.4 0.12-2.2 0.99 1.2 0.49 3.3 0.29 5.2-0.49 2.7-1.1 3.4-1.08 4.4 0.14 0.6 0.8 1.9 1.23 2.8 0.97 0.9-0.27 2.8-0.7 4.3-0.96 1.6-0.26 3.8-0.78 4.9-1.15 2-0.63 2-0.43-0.6 2.87-1.5 2.08-3.2 3.33-4 3.02-1.9-0.71-5 1.73-5 3.9 0 0.97-0.3 1.64-0.7 1.5-0.3-0.13-1.6 0.81-2.7 2.1-1.1 1.28-2.5 2.06-3 1.73-1.7-1.04-2.5 1.66-0.9 2.86 1.2 0.88 0.2 1.11-4.8 1.04-5.5-0.08-6.4 0.16-6.4 1.68 0 1.17-0.5 1.58-1.5 1.21-0.8-0.32-2.3-0.24-3.3 0.18-0.9 0.41-2.7 0.65-4 0.53-3.6-0.36-2.5 1.63 1.5 2.81l3.8 1.08-4.8-0.47c-2.7-0.26-4.7-0.05-4.7 0.52 0 0.54 1 1.02 2.2 1.05 2.2 0.07 2.2 0.11 0.3 0.89-1.5 0.6-2.7 0.19-4.6-1.57-2.6-2.42-4.5-3.22-3.4-1.39 0.3 0.55 0.1 1-0.5 1-2.4 0-0.8 1.81 2.2 2.42 2.9 0.59 3.1 0.8 1.5 1.71-1 0.57-2.6 0.71-3.5 0.3-1-0.41-2-0.68-2.4-0.61s-1.3-1.2-2-2.84c-1.6-3.71-2.6-3.78-3-0.23-0.2 1.85-0.8 2.64-1.8 2.4-5.6-1.29-6-1.05-6 3.24 0 4.02 1.4 15.38 2.6 20.86 0.5 2.63 0.4 2.75-3.3 2.75h-3.9l0.4-7.02zm-15.8-20.98c1-0.1 1.1-0.33 0.3-0.64-0.7-0.27-0.9-1.21-0.6-2.09 0.5-1.27 0.2-1.45-1.3-0.84-3.2 1.28-4.9 1.37-6.2 0.32-0.8-0.66-1.2-0.65-1.2 0.06 0 0.57-0.8 1.24-1.8 1.47-1.5 0.36-1.4 0.54 0.5 1.32 1.9 0.79 5.3 0.92 10.3 0.4zm-25-16.26c0-0.48-0.7-0.2-1.5 0.62-0.8 0.83-1.5 2.1-1.5 2.82 0.1 1.46 3-1.94 3-3.44zm14-4.8c0-0.51-0.5-0.94-1.1-0.94s-0.9-0.77-0.5-1.75c0.5-1.62 0.5-1.61-0.8 0.04-1.1 1.47-1.6 1.56-2.8 0.5-1.5-1.5-8.8-2.09-8.8-0.72 0 0.52-0.7 0.93-1.5 0.93-2.1 0-1.9 1.78 0.2 2.22 3.9 0.8 15.3 0.59 15.3-0.28zm10 0.06c0-1.29-1.7-1.29-2.5 0-0.4 0.55 0.1 1 0.9 1 0.9 0 1.6-0.45 1.6-1zm14.5-1.99c0.3-0.56-0.1-0.73-1-0.39-1.7 0.67-2 1.38-0.6 1.38 0.5 0 1.2-0.44 1.6-0.99zm42.5-2.01c0-0.55-0.7-1-1.5-1s-1.5 0.45-1.5 1 0.7 1 1.5 1 1.5-0.45 1.5-1zm-82-1.38c0-0.21-0.9-0.62-2-0.91-1.1-0.28-1.8-0.11-1.5 0.39 0.6 0.87 3.5 1.31 3.5 0.52zm82.5-1.62c-0.8-1.28-1.5-1.28-1.5 0 0 0.55 0.5 1 1 1 0.6 0 0.8-0.45 0.5-1zm-78-4c0.3-0.55-0.4-0.99-1.7-0.98-1.9 0.01-2 0.2-0.8 0.98 1.8 1.21 1.7 1.21 2.5 0zm4.5-1.06c0-0.58-0.5-0.78-1-0.44-1.3 0.8-1.3 1.5 0 1.5 0.5 0 1-0.47 1-1.06zm-16.3-1.09c0.9-0.85 1.6-0.86 2.5-0.07 1 0.81 2.2 0.67 4.7-0.54 1.9-0.9 2.9-1.81 2.2-2.03-0.6-0.22-1.9 0.18-2.7 0.88-1.3 1.03-1.7 1.04-2.3 0.02-0.7-0.99-1.7-1.01-5.1-0.1-3.2 0.86-4 1.4-2.9 2.06 1.8 1.18 2.3 1.16 3.6-0.22zm102.6-3.78c1-0.96-1-1.01-6.6-0.18-0.4 0.06-0.7 0.59-0.7 1.17 0 1.31 5.8 0.52 7.3-0.99zm-97.8-4.06c0.3-0.56-0.1-0.73-1-0.39-1.7 0.67-2 1.38-0.6 1.38 0.5 0 1.2-0.44 1.6-0.99zm5-14.01c-0.8-1.28-1.5-1.28-1.5 0 0 0.55 0.5 1 1 1 0.6 0 0.8-0.45 0.5-1zm1.4-4.9c1.8-1.13 0.4-3.41-1.7-2.64-0.8 0.32-2.6-0.13-3.9-1.02-1.6-1.01-3.4-1.37-5-0.97-3.1 0.76-2.5 1.48 3 3.66 5 2 5.8 2.1 7.6 0.97zm100.1-5.17c0-1.73-3.1-4.37-3.9-3.27-0.3 0.55-1.4 1.28-2.4 1.63-3.1 1.16-1.8 2.71 2.3 2.71 2.2 0 4-0.48 4-1.07zm-94.8-3.61c-0.7-0.29-1.6-0.25-1.9 0.08-0.4 0.33 0.2 0.57 1.3 0.52 1.1-0.04 1.4-0.28 0.6-0.6zm4.8-12.32c-1.3-0.8-1.2-0.97 0.5-1 1.6-0.02 1.7-0.2 0.5-0.95-0.9-0.58-1.9-0.56-2.6 0.06-0.8 0.61-1.5 0.63-1.8 0.05-0.3-0.52 0.1-1.21 0.9-1.52 0.8-0.32 1.5-1.15 1.5-1.86 0-0.85-0.3-0.92-0.8-0.2-1.1 1.61-4.1 2.47-4.8 1.36-0.3-0.53-1-0.71-1.5-0.39-0.5 0.31-0.9 0.1-0.9-0.48 0-0.57-1-0.94-2.3-0.8-1.6 0.17-2.2-0.27-2.1-1.52 0.1-1.01-0.5-1.74-1.5-1.73-7.4 0.07-2.3 6.66 6.6 8.57 7.5 1.61 10.4 1.76 8.3 0.41zm58-12c0-0.55-0.5-1-1-1-0.6 0-1 0.45-1 1s0.4 1 1 1c0.5 0 1-0.45 1-1zm-62-1c1.2-0.78 1.1-0.97-0.8-0.98-1.2-0.01-2.2 0.43-2.2 0.98 0 1.26 1 1.26 3 0zm11.5-13.08c1.1-1.67-1.2-3.58-2.6-2.2-1.2 1.15-0.5 3.28 1.1 3.28 0.5 0 1.2-0.49 1.5-1.08zm5-1.92c-0.8-1.28-1.5-1.28-1.5 0 0 0.55 0.5 1 1 1 0.6 0 0.8-0.45 0.5-1zm40.5-6c0-0.55-0.5-1-1.1-1s-0.8 0.45-0.4 1c0.8 1.28 1.5 1.28 1.5 0zm-39.5-4c0.3-0.55 0.2-1-0.4-1-0.5 0-1.3 0.45-1.6 1-0.4 0.55-0.2 1 0.4 1 0.5 0 1.2-0.45 1.6-1zm-5.8-1.25c-0.4-1.41-2-1.26-2.5 0.25-0.2 0.55 0.4 1 1.3 1s1.5-0.56 1.2-1.25zm-3.7-1.8c0-1.6-2.2-2.19-3.1-0.82-1.4 2.15-1.1 2.73 1.1 2.16 1.1-0.28 2-0.89 2-1.34zm45-6.47c3.8-1.92 3.7-2.24 0-1.69-1.6 0.24-2.8 0.8-2.5 1.25s-0.5 1.02-1.7 1.26c-1.6 0.3-1.8 0.47-0.5 0.57 1 0.07 3.1-0.55 4.7-1.39zm-12-11.04c0-0.24-0.7-0.44-1.6-0.44-0.8 0-1.2 0.46-0.9 1.02 0.6 0.92 2.5 0.48 2.5-0.58zm-13-14.76c0-0.94-1-1.18-3.3-0.83-3.1 0.49-3.1 0.53-0.7 1.23 3.7 1.07 4 1.04 4-0.4zm-39.7 155.72c0.3-0.33 1.2-0.37 1.9-0.08 0.8 0.32 0.5 0.56-0.6 0.6-1.1 0.05-1.7-0.19-1.3-0.52zm17.7-161.3c-1.2-2.33-1.3-3.1-0.3-3.1 1.4 0 3.3 3.87 2.3 4.49-0.5 0.31-1.4-0.31-2-1.39zm15-30.24c0-0.47 0.4-0.86 0.9-0.86s1.6-0.27 2.5-0.6c0.9-0.34 1.6-0.16 1.6 0.38s-1.1 1.21-2.5 1.47-2.5 0.09-2.5-0.39zm8.9-7.54c-1.3-1.5-1.2-1.61 0.6-1 1.9 0.66 1.9 0.63 0.1-0.75-1.7-1.32-1.5-1.42 1.8-1.25 2 0.1 3.6 0.3 3.6 0.43 0 0.4-4 4.25-4.4 4.25-0.2 0-1-0.76-1.7-1.68zm-0.3-7.02c-1.7-2.29-1.7-2.56-0.3-2 0.9 0.35 1.7 0.2 1.7-0.33s0.5-0.97 1.1-0.97c0.8 0 0.8 0.37 0.1 1.29-1.4 1.59-0.3 3.32 2.3 3.98 1.6 0.41 1.5 0.52-0.5 0.59-1.6 0.05-3.2-0.86-4.4-2.56zm0.5-6.54c-1.5-1.56-1.4-2.76 0.3-2.76 1.6 0 2.9 2.68 1.7 3.43-0.4 0.27-1.3-0.03-2-0.67zm0.6-8.1c-0.3-0.73-0.1-1.97 0.4-2.75 0.6-1.02 0.9-0.66 0.9 1.34 0 2.99-0.5 3.53-1.3 1.41z" transform="translate(-1250.9 -447.79)" fill="#00b800" class="color000 svgShape"></path></svg></g></svg>